<svg width="24" height="24" viewBox="0 0 24 24" fill="none" xmlns="http://www.w3.org/2000/svg">
<path d="M21.375 12C21.375 12.2984 21.2564 12.5846 21.0455 12.7955C20.8345 13.0065 20.5483 13.125 20.25 13.125H6.46872L11.2987 17.9541C11.5101 18.1654 11.6288 18.4521 11.6288 18.751C11.6288 19.0499 11.5101 19.3365 11.2987 19.5478C11.0874 19.7592 10.8007 19.8779 10.5018 19.8779C10.203 19.8779 9.91632 19.7592 9.70497 19.5478L2.95497 12.7978C2.85009 12.6933 2.76688 12.5691 2.71009 12.4324C2.65331 12.2956 2.62408 12.149 2.62408 12.001C2.62408 11.8529 2.65331 11.7063 2.71009 11.5696C2.76688 11.4328 2.85009 11.3086 2.95497 11.2041L9.70497 4.4541C9.80962 4.34945 9.93385 4.26644 10.0706 4.20981C10.2073 4.15317 10.3539 4.12402 10.5018 4.12402C10.6498 4.12402 10.7964 4.15317 10.9331 4.20981C11.0698 4.26644 11.1941 4.34945 11.2987 4.4541C11.4034 4.55875 11.4864 4.68298 11.543 4.81971C11.5996 4.95644 11.6288 5.10298 11.6288 5.25097C11.6288 5.39897 11.5996 5.54551 11.543 5.68224C11.4864 5.81897 11.4034 5.9432 11.2987 6.04785L6.46872 10.875H20.25C20.5483 10.875 20.8345 10.9936 21.0455 11.2045C21.2564 11.4155 21.375 11.7017 21.375 12Z" fill="#3A3A3A"/>
</svg>
