<svg width="16" height="16" viewBox="0 0 16 16" fill="none" xmlns="http://www.w3.org/2000/svg">
<path d="M12.75 4V10.5C12.75 10.6989 12.671 10.8897 12.5303 11.0303C12.3897 11.171 12.1989 11.25 12 11.25C11.8011 11.25 11.6103 11.171 11.4697 11.0303C11.329 10.8897 11.25 10.6989 11.25 10.5V5.8125L4.53063 12.5306C4.38973 12.6715 4.19864 12.7507 3.99938 12.7507C3.80012 12.7507 3.60902 12.6715 3.46813 12.5306C3.32723 12.3897 3.24808 12.1986 3.24808 11.9994C3.24808 11.8001 3.32723 11.609 3.46813 11.4681L10.1875 4.75H5.5C5.30109 4.75 5.11033 4.67098 4.96967 4.53033C4.82902 4.38968 4.75 4.19891 4.75 4C4.75 3.80109 4.82902 3.61032 4.96967 3.46967C5.11033 3.32902 5.30109 3.25 5.5 3.25H12C12.1989 3.25 12.3897 3.32902 12.5303 3.46967C12.671 3.61032 12.75 3.80109 12.75 4Z" fill="white"/>
</svg>
