<svg width="231" height="58" viewBox="0 0 231 58" fill="none" xmlns="http://www.w3.org/2000/svg">
<path fill-rule="evenodd" clip-rule="evenodd" d="M4.53137 14.375H6.4506V43.125H4.53137V14.375ZM8.36982 14.375H12.2083V43.125H8.36982V14.375ZM16.0467 14.375H17.9659V43.125H16.0467V14.375ZM19.8852 14.375H25.6428V43.125H19.8852V14.375ZM27.5621 14.375H29.4813V43.125H27.5621V14.375ZM33.3197 14.375H35.239V43.125H33.3197V14.375ZM37.1582 14.375H39.0774V43.125H37.1582V14.375ZM40.9966 14.375H42.9159V43.125H40.9966V14.375Z" fill="#3A3A3A"/>
<path fill-rule="evenodd" clip-rule="evenodd" d="M50.5928 14.375H52.512V43.125H50.5928V14.375ZM54.4312 14.375H58.2697V43.125H54.4312V14.375ZM62.1081 14.375H64.0273V43.125H62.1081V14.375ZM65.9466 14.375H71.7042V43.125H65.9466V14.375ZM73.6235 14.375H75.5427V43.125H73.6235V14.375ZM79.3811 14.375H81.3004V43.125H79.3811V14.375ZM83.2196 14.375H85.1388V43.125H83.2196V14.375ZM87.058 14.375H88.9773V43.125H87.058V14.375Z" fill="#3A3A3A"/>
<path fill-rule="evenodd" clip-rule="evenodd" d="M96.6542 14.375H98.5734V43.125H96.6542V14.375ZM100.493 14.375H104.331V43.125H100.493V14.375ZM108.17 14.375H110.089V43.125H108.17V14.375ZM112.008 14.375H117.766V43.125H112.008V14.375ZM119.685 14.375H121.604V43.125H119.685V14.375ZM125.443 14.375H127.362V43.125H125.443V14.375ZM129.281 14.375H131.2V43.125H129.281V14.375ZM133.119 14.375H135.039V43.125H133.119V14.375Z" fill="#3A3A3A"/>
<path fill-rule="evenodd" clip-rule="evenodd" d="M142.716 14.375H144.635V43.125H142.716V14.375ZM146.554 14.375H150.392V43.125H146.554V14.375ZM154.231 14.375H156.15V43.125H154.231V14.375ZM158.069 14.375H163.827V43.125H158.069V14.375ZM165.746 14.375H167.665V43.125H165.746V14.375ZM171.504 14.375H173.423V43.125H171.504V14.375ZM175.342 14.375H177.262V43.125H175.342V14.375ZM179.181 14.375H181.1V43.125H179.181V14.375Z" fill="#3A3A3A"/>
<path fill-rule="evenodd" clip-rule="evenodd" d="M188.777 14.375H190.696V43.125H188.777V14.375ZM192.615 14.375H196.454V43.125H192.615V14.375ZM200.292 14.375H202.212V43.125H200.292V14.375ZM204.131 14.375H209.888V43.125H204.131V14.375ZM211.808 14.375H213.727V43.125H211.808V14.375ZM217.565 14.375H219.485V43.125H217.565V14.375ZM221.404 14.375H223.323V43.125H221.404V14.375ZM225.242 14.375H227.161V43.125H225.242V14.375Z" fill="#3A3A3A"/>
</svg>
