<svg width="20" height="21" viewBox="0 0 20 21" fill="none" xmlns="http://www.w3.org/2000/svg">
<path d="M18.792 14.0169C17.9782 12.6172 17.546 10.6081 17.546 8.21094C17.546 6.12236 16.7163 4.11932 15.2395 2.64247C13.7626 1.16562 11.7596 0.335938 9.67102 0.335938C7.58244 0.335938 5.5794 1.16562 4.10255 2.64247C2.6257 4.11932 1.79602 6.12236 1.79602 8.21094C1.79602 10.6091 1.36571 12.6172 0.551957 14.0169C0.385909 14.3024 0.29789 14.6265 0.296738 14.9568C0.295586 15.287 0.381342 15.6118 0.545395 15.8984C0.70841 16.1852 0.945017 16.4233 1.23079 16.5881C1.51656 16.7529 1.84114 16.8385 2.17102 16.8359H5.56289C5.65592 17.8612 6.12897 18.8147 6.88911 19.5089C7.64925 20.2032 8.64153 20.5882 9.67102 20.5882C10.7005 20.5882 11.6928 20.2032 12.4529 19.5089C13.2131 18.8147 13.6861 17.8612 13.7791 16.8359H17.171C17.5004 16.838 17.8244 16.7522 18.1097 16.5874C18.3949 16.4226 18.631 16.1848 18.7938 15.8984C18.9586 15.6122 19.0452 15.2877 19.0448 14.9574C19.0445 14.6271 18.9573 14.3028 18.792 14.0169ZM9.67102 18.3359C9.23878 18.336 8.81977 18.1868 8.48493 17.9134C8.15009 17.6401 7.91997 17.2594 7.83352 16.8359H11.5085C11.4221 17.2594 11.192 17.6401 10.8571 17.9134C10.5223 18.1868 10.1033 18.336 9.67102 18.3359ZM2.79539 14.5859C3.62508 12.8984 4.04602 10.7553 4.04602 8.21094C4.04602 6.71909 4.63865 5.28835 5.69354 4.23346C6.74844 3.17857 8.17918 2.58594 9.67102 2.58594C11.1629 2.58594 12.5936 3.17857 13.6485 4.23346C14.7034 5.28835 15.296 6.71909 15.296 8.21094C15.296 10.7544 15.716 12.8984 16.5457 14.5859H2.79539Z" fill="url(#paint0_linear_171_262)"/>
<defs>
<linearGradient id="paint0_linear_171_262" x1="-3.0387" y1="13.3802" x2="8.62148" y2="-2.56952" gradientUnits="userSpaceOnUse">
<stop stop-color="#F300CC"/>
<stop offset="1" stop-color="#813E95"/>
</linearGradient>
</defs>
</svg>
