<svg width="8" height="7" viewBox="0 0 8 7" fill="none" xmlns="http://www.w3.org/2000/svg">
<path d="M3.375 2.125C3.375 2.02611 3.40433 1.92944 3.45927 1.84721C3.51421 1.76499 3.5923 1.7009 3.68366 1.66306C3.77502 1.62522 3.87556 1.61531 3.97255 1.63461C4.06954 1.6539 4.15863 1.70152 4.22855 1.77145C4.29848 1.84137 4.3461 1.93046 4.36539 2.02745C4.38469 2.12445 4.37479 2.22498 4.33694 2.31634C4.2991 2.4077 4.23501 2.48579 4.15279 2.54073C4.07056 2.59568 3.97389 2.625 3.875 2.625C3.74239 2.625 3.61522 2.57232 3.52145 2.47855C3.42768 2.38479 3.375 2.25761 3.375 2.125ZM7.375 3.5C7.375 4.16751 7.17706 4.82003 6.80621 5.37505C6.43536 5.93007 5.90826 6.36265 5.29156 6.61809C4.67486 6.87354 3.99626 6.94038 3.34157 6.81015C2.68689 6.67993 2.08552 6.35849 1.61352 5.88649C1.14151 5.41448 0.820076 4.81312 0.689851 4.15843C0.559626 3.50374 0.626462 2.82514 0.881908 2.20844C1.13735 1.59174 1.56994 1.06464 2.12495 0.69379C2.67997 0.32294 3.33249 0.125 4 0.125C4.8948 0.125993 5.75267 0.481891 6.38539 1.11461C7.01811 1.74733 7.37401 2.6052 7.375 3.5ZM6.625 3.5C6.625 2.98082 6.47105 2.47331 6.18261 2.04163C5.89417 1.60995 5.4842 1.2735 5.00455 1.07482C4.52489 0.876136 3.99709 0.824152 3.48789 0.925439C2.97869 1.02672 2.51096 1.27673 2.14385 1.64384C1.77673 2.01096 1.52673 2.47869 1.42544 2.98789C1.32415 3.49709 1.37614 4.02489 1.57482 4.50454C1.7735 4.9842 2.10995 5.39417 2.54163 5.68261C2.97331 5.97105 3.48083 6.125 4 6.125C4.69597 6.12426 5.36321 5.84745 5.85533 5.35533C6.34746 4.86321 6.62426 4.19596 6.625 3.5ZM4.375 4.64625V3.625C4.375 3.45924 4.30915 3.30027 4.19194 3.18306C4.07473 3.06585 3.91576 3 3.75 3C3.66144 2.99987 3.57569 3.03108 3.50794 3.08812C3.44019 3.14515 3.39481 3.22432 3.37984 3.3116C3.36487 3.39889 3.38127 3.48866 3.42614 3.56501C3.47101 3.64136 3.54146 3.69936 3.625 3.72875V4.75C3.625 4.91576 3.69085 5.07473 3.80806 5.19194C3.92527 5.30915 4.08424 5.375 4.25 5.375C4.33856 5.37513 4.42431 5.34392 4.49206 5.28688C4.55981 5.22985 4.60519 5.15068 4.62016 5.0634C4.63513 4.97611 4.61873 4.88634 4.57386 4.80999C4.52899 4.73364 4.45854 4.67564 4.375 4.64625Z" fill="#FF0000" fill-opacity="0.6"/>
</svg>
