<svg width="56" height="56" viewBox="0 0 56 56" fill="none" xmlns="http://www.w3.org/2000/svg">
<circle cx="28.0157" cy="27.5375" r="27.4843" fill="#F5F5F5"/>
<path fill-rule="evenodd" clip-rule="evenodd" d="M17.5879 17.3801C16.6165 18.9732 15.6039 21.6315 14.8154 24.7035C14.0154 27.8258 13.4759 31.2612 13.4348 34.2349C14.2074 35.1881 16.3125 37.0212 19.7891 37.8806L22.2759 34.7721C21.0737 34.3378 20.0634 33.7823 19.4279 33.1469C19.2198 32.9314 19.1046 32.6427 19.1072 32.343C19.1098 32.0434 19.23 31.7567 19.4419 31.5448C19.6538 31.3329 19.9404 31.2128 20.2401 31.2101C20.5397 31.2075 20.8284 31.3227 21.0439 31.5309C21.5125 31.9972 22.7102 32.6235 24.4771 33.0395L24.4931 33.0441C26.9216 33.6089 29.4474 33.6089 31.8759 33.0441H31.8897C33.6588 32.6235 34.8565 31.9972 35.3228 31.5309C35.4289 31.4247 35.5549 31.3403 35.6936 31.2828C35.8323 31.2252 35.981 31.1955 36.1311 31.1954C36.2813 31.1953 36.43 31.2248 36.5688 31.2822C36.7076 31.3395 36.8337 31.4237 36.9399 31.5298C37.0462 31.6359 37.1305 31.7619 37.1881 31.9006C37.2456 32.0393 37.2753 32.1879 37.2754 32.3381C37.2755 32.4883 37.2461 32.637 37.1887 32.7758C37.1313 32.9145 37.0472 33.0407 36.9411 33.1469C36.3057 33.7823 35.2954 34.3378 34.0931 34.7698L36.5799 37.8783C40.0565 37.0212 42.1617 35.1881 42.9342 34.2372C42.8931 31.2612 42.3537 27.8258 41.5537 24.7035C40.7651 21.6292 39.7525 18.9732 38.7811 17.3801L38.7125 17.3595C38.1764 17.2072 37.6313 17.0881 37.0805 17.0029C35.4554 16.7309 32.6805 16.4498 28.1845 16.4498C23.6885 16.4498 20.9159 16.7309 19.2885 17.0029C18.4771 17.1401 17.9582 17.2703 17.6565 17.3595L17.5879 17.3823V17.3801ZM16.8314 16.4429C16.6587 16.103 16.4888 15.7616 16.3217 15.4189H16.3262L16.3331 15.4143L16.3514 15.4052L16.3971 15.3846L16.5319 15.3298C16.6417 15.2863 16.7948 15.2315 16.9982 15.1698C17.4074 15.0486 18.0222 14.8955 18.9137 14.7469C20.6965 14.4498 23.5994 14.1641 28.1845 14.1641C32.7697 14.1641 35.6748 14.4521 37.4554 14.7469C38.3468 14.8955 38.9639 15.0486 39.3708 15.1721C39.5746 15.2327 39.7753 15.3037 39.9719 15.3846L40.0177 15.4075L40.0359 15.4143L40.0428 15.4166L40.0451 15.4189H40.0474L39.5377 16.4429M22.5731 27.2292C23.1793 27.2292 23.7607 26.9884 24.1893 26.5597C24.618 26.1311 24.8588 25.5497 24.8588 24.9435C24.8588 24.3373 24.618 23.7559 24.1893 23.3272C23.7607 22.8986 23.1793 22.6578 22.5731 22.6578C21.9669 22.6578 21.3855 22.8986 20.9568 23.3272C20.5282 23.7559 20.2874 24.3373 20.2874 24.9435C20.2874 25.5497 20.5282 26.1311 20.9568 26.5597C21.3855 26.9884 21.9669 27.2292 22.5731 27.2292ZM36.0817 24.9435C36.0817 25.5497 35.8408 26.1311 35.4122 26.5597C34.9835 26.9884 34.4021 27.2292 33.7959 27.2292C33.1897 27.2292 32.6083 26.9884 32.1797 26.5597C31.751 26.1311 31.5102 25.5497 31.5102 24.9435C31.5102 24.3373 31.751 23.7559 32.1797 23.3272C32.6083 22.8986 33.1897 22.6578 33.7959 22.6578C34.4021 22.6578 34.9835 22.8986 35.4122 23.3272C35.8408 23.7559 36.0817 24.3373 36.0817 24.9435Z" fill="url(#paint0_linear_7_397)"/>
<defs>
<linearGradient id="paint0_linear_7_397" x1="8.18664" y1="29.4396" x2="20.2187" y2="7.32576" gradientUnits="userSpaceOnUse">
<stop stop-color="#F300CC"/>
<stop offset="1" stop-color="#813E95"/>
</linearGradient>
</defs>
</svg>
