<svg width="66" height="67" viewBox="0 0 66 67" fill="none" xmlns="http://www.w3.org/2000/svg">
<rect y="0.108887" width="65.3331" height="66.7822" rx="32.6666" fill="#813E95"/>
<path d="M32.6635 19.0073C28.3041 19.0073 25.4781 21.9334 22.1361 23C20.7767 23.4348 20.097 23.6507 19.8216 23.9565C19.5463 24.2609 19.4666 24.7087 19.3057 25.6014C17.5811 35.1608 21.3492 43.9983 30.3345 47.4389C31.2983 47.8084 31.7809 47.9925 32.6679 47.9925C33.5548 47.9925 34.0389 47.807 35.0041 47.4374C43.988 43.9983 47.7517 35.1608 46.0271 25.6014C45.8662 24.7087 45.7851 24.2609 45.5097 23.9551C45.2344 23.6493 44.5561 23.4334 43.1967 23C39.8533 21.9334 37.0229 19.0073 32.6635 19.0073Z" stroke="#FDFDFD" stroke-width="2.17389" stroke-linecap="round" stroke-linejoin="round"/>
<path d="M30.1304 30.542C30.1304 30.455 30.142 29.9536 30.1449 29.3246C30.1449 28.7478 30.0956 28.1942 30.3709 27.687C31.3999 25.6377 34.3564 25.8464 35.0868 27.9333C35.2129 28.2768 35.2216 28.8203 35.2173 29.3246C35.2129 29.9666 35.226 30.542 35.226 30.542M30.2564 31.1521C28.6913 31.1521 27.9087 32.2826 27.7347 32.9782C27.5608 33.6738 27.5608 36.1956 27.6652 37.239C28.013 38.5434 28.8826 39.0825 29.7347 39.2564C30.5173 39.326 33.8216 39.2999 34.7781 39.2999C36.1694 39.326 37.2129 38.8042 37.6477 37.239C37.7346 36.7173 37.8216 33.8478 37.6042 32.9782C37.1433 31.5869 35.9955 31.1521 35.126 31.1521H30.2564Z" stroke="#FDFDFD" stroke-width="2.17389" stroke-linecap="round" stroke-linejoin="round"/>
</svg>
