<svg width="14" height="13" viewBox="0 0 14 13" fill="none" xmlns="http://www.w3.org/2000/svg">
<path d="M13.393 1.25219C13.295 1.03072 13.1349 0.842467 12.9319 0.710321C12.729 0.578175 12.492 0.507822 12.2499 0.507812H1.24988C1.00775 0.507836 0.770841 0.57818 0.567935 0.710298C0.365029 0.842416 0.204861 1.03062 0.106892 1.25204C0.0089234 1.47347 -0.022629 1.71858 0.0160686 1.95759C0.0547663 2.19661 0.162048 2.41924 0.324879 2.59844L0.332379 2.60719L4.49988 7.05469V11.7578C4.49985 11.9841 4.56125 12.2062 4.67754 12.4003C4.79382 12.5945 4.96064 12.7534 5.16017 12.8602C5.35971 12.9669 5.58449 13.0175 5.81053 13.0065C6.03656 12.9955 6.25538 12.9234 6.44363 12.7978L8.44363 11.4647C8.61486 11.3504 8.75523 11.1957 8.85227 11.0141C8.94931 10.8326 9.00001 10.6299 8.99988 10.4241V7.05469L13.1668 2.60719L13.1743 2.59844C13.3372 2.41933 13.4446 2.19677 13.4834 1.95778C13.5223 1.71879 13.4908 1.47366 13.393 1.25219ZM7.7055 6.24531C7.57428 6.38378 7.50075 6.56704 7.49988 6.75781V10.2903L5.99988 11.2903V6.75781C5.99969 6.56739 5.92707 6.38416 5.79675 6.24531L1.82675 2.00781H11.673L7.7055 6.24531Z" fill="#3A3A3A"/>
</svg>
