<svg width="110" height="109" viewBox="0 0 110 109" fill="none" xmlns="http://www.w3.org/2000/svg">
<path d="M27.7439 28.6341C27.7439 29.1841 27.9624 29.7116 28.3513 30.1005C28.7402 30.4894 29.2677 30.7079 29.8177 30.7079C41.2418 30.7079 51.0557 23.6874 55.1758 13.735C59.296 23.6876 69.11 30.7079 80.5342 30.7079C81.6796 30.7079 82.608 29.7795 82.608 28.6341C82.608 27.4887 81.6796 26.5603 80.5342 26.5603C67.6952 26.5603 57.2498 16.1148 57.2498 3.27582C57.2498 2.13042 56.3214 1.20203 55.176 1.20203C54.0306 1.20203 53.102 2.13042 53.102 3.27582C53.102 16.1148 42.6567 26.5603 29.8177 26.5603C29.2677 26.5603 28.7402 26.7788 28.3513 27.1677C27.9624 27.5566 27.7439 28.0841 27.7439 28.6341Z" fill="#2B3B47"/>
<path d="M108.982 48.683C108.982 34.4899 97.4759 22.984 83.2828 22.984C69.0896 22.984 57.5837 34.4899 57.5837 48.683M1.01796 48.683C1.01796 34.4899 12.5238 22.984 26.717 22.984C40.9101 22.984 52.416 34.4899 52.416 48.683" fill="#FFB636"/>
<path d="M101.285 48.683C101.285 34.4899 86.0059 22.984 83.2828 22.984C80.5597 22.984 91.4237 34.4899 91.4237 48.683M34.8579 48.683C34.8579 34.4899 23.9939 22.984 26.717 22.984C29.4401 22.984 44.7189 34.4899 44.7189 48.683" fill="#FFD469"/>
<path d="M83.2828 53.5321C97.4759 53.5321 108.982 51.6459 108.982 49.3193C108.982 46.9925 97.4759 45.1064 83.2828 45.1064C69.0896 45.1064 57.5837 46.9927 57.5837 49.3193C57.5837 51.6459 69.0896 53.5321 83.2828 53.5321ZM1.01796 49.3193C1.01796 46.9925 12.5238 45.1064 26.717 45.1064C40.9101 45.1064 52.416 46.9927 52.416 49.3193C52.416 51.6461 40.9101 53.5321 26.717 53.5321C12.5238 53.5321 1.01796 51.6459 1.01796 49.3193Z" fill="#A06C33"/>
<path d="M50.5498 70.9975C50.5498 72.6372 51.8791 73.9666 53.5189 73.9666C55.1587 73.9666 56.488 72.6372 56.488 70.9975C56.488 69.3577 55.1587 68.0283 53.5189 68.0283C51.8791 68.0283 50.5498 69.3579 50.5498 70.9975ZM36.7883 99.7163C38.2352 99.7163 39.4082 100.889 39.4082 102.336C39.4082 103.783 38.2352 104.956 36.7883 104.956C35.3413 104.956 34.1684 103.783 34.1684 102.336C34.1684 100.889 35.3413 99.7163 36.7883 99.7163ZM94.2899 86.2589C95.7368 86.2589 96.9098 87.4318 96.9098 88.8788C96.9098 90.3257 95.7368 91.4986 94.2899 91.4986C92.8429 91.4986 91.67 90.3257 91.67 88.8788C91.67 87.4318 92.8429 86.2589 94.2899 86.2589Z" fill="#FFB636"/>
<path d="M77.1039 101.277C77.1039 103.171 78.6396 104.707 80.5339 104.707C82.4282 104.707 83.964 103.171 83.964 101.277C83.964 99.3826 82.4282 97.8469 80.5339 97.8469C78.6394 97.8466 77.1039 99.3824 77.1039 101.277ZM23.6132 51.088C24.8658 49.804 26.6241 48.939 28.5644 48.6523C29.6962 48.4844 30.7538 49.2679 30.9217 50.4025C31.0893 51.5369 30.3059 52.5922 29.1715 52.7598C28.1403 52.9122 27.1977 53.3597 26.5851 53.9874C26.3106 54.2688 25.8646 54.8378 25.9606 55.4876C26.0566 56.1373 26.6482 56.5529 26.9924 56.7427C27.7606 57.1668 28.792 57.3219 29.8233 57.1697C34.0379 56.5476 37.8862 58.8714 38.4012 62.3521C38.9157 65.8326 35.9051 69.1713 31.6899 69.7945C31.6678 69.7977 31.6462 69.7969 31.6242 69.7994C29.5788 70.1266 28.3253 71.4835 28.4779 72.5153C28.5739 73.1648 29.1656 73.5806 29.5097 73.7705C30.2779 74.1943 31.3093 74.3503 32.3407 74.1975C36.555 73.5749 40.4036 75.8991 40.9185 79.3798C41.433 82.8603 38.4224 86.199 34.2072 86.8222C34.1044 86.8372 34.0023 86.8447 33.901 86.8447C32.8889 86.8447 32.0024 86.1034 31.8499 85.072C31.6822 83.9379 32.4657 82.8825 33.6001 82.7147C35.6845 82.4066 36.9653 81.0298 36.811 79.9872C36.6567 78.9441 35.033 77.9954 32.948 78.305C32.4837 78.3736 32.0194 78.4076 31.5604 78.4076C30.1029 78.4076 28.6983 78.0651 27.5037 77.4058C25.7737 76.4512 24.6317 74.89 24.3704 73.1224C23.8558 69.6419 26.8665 66.3032 31.0817 65.68C31.1094 65.676 31.1368 65.6749 31.1645 65.6719C33.1995 65.3399 34.4458 63.9881 34.2939 62.9594C34.1396 61.9164 32.5155 60.9681 30.4309 61.2773C29.9664 61.3459 29.5023 61.3798 29.0433 61.3798C27.5855 61.3798 26.1812 61.0374 24.9866 60.3781C23.2565 59.4234 22.1145 57.8623 21.8532 56.0947C21.592 54.3271 22.2334 52.5023 23.6132 51.088Z" fill="#BEA4FF"/>
<path d="M48.1484 92.3086C48.1484 94.2029 49.6842 95.7386 51.5785 95.7386C53.4728 95.7386 55.0085 94.2029 55.0085 92.3086C55.0085 90.4143 53.4728 88.8785 51.5785 88.8785C49.6842 88.8783 48.1484 90.4141 48.1484 92.3086ZM83.6978 57.4729C85.031 56.1762 86.8736 55.3277 88.8863 55.084C88.9145 55.0806 88.9423 55.0804 88.9703 55.078C90.783 54.8278 92.011 53.6745 91.9034 52.786C91.7453 51.4812 92.6749 50.2954 93.9795 50.1373C95.283 49.9805 96.4701 50.9088 96.6282 52.2134C97.0789 55.9344 93.9303 59.2737 89.4598 59.8156C89.4348 59.8186 89.4104 59.8179 89.3856 59.82C88.4443 59.9483 87.5837 60.3327 87.0164 60.8845C86.775 61.1193 86.3794 61.5914 86.4426 62.1138C86.5057 62.6357 87.0029 62.9996 87.2934 63.17C87.994 63.5807 88.9518 63.7491 89.9222 63.6313C91.9354 63.387 93.9269 63.771 95.5311 64.7119C97.318 65.7596 98.4727 67.4324 98.6992 69.3009C99.1502 73.0221 96.0016 76.3612 91.531 76.9033C91.4337 76.915 91.3372 76.9209 91.2416 76.9209C90.0553 76.9209 89.0285 76.0346 88.8823 74.8274C88.724 73.5226 89.6537 72.3367 90.9582 72.1787C92.8171 71.9534 94.084 70.7758 93.9746 69.8737C93.9113 69.3515 93.4143 68.9877 93.1236 68.8173C92.4232 68.4066 91.4649 68.2381 90.495 68.3559C90.0993 68.404 89.7048 68.4276 89.3136 68.4276C87.7142 68.4276 86.1749 68.0315 84.886 67.2754C83.099 66.2277 81.9445 64.5548 81.7179 62.6864C81.4914 60.8175 82.213 58.9173 83.6978 57.4729ZM13.1059 106.065C12.0069 105.344 11.7003 103.869 12.4212 102.77C20.3964 90.609 14.2818 82.0369 10.6288 76.9154C10.1844 76.2925 9.76485 75.7041 9.4226 75.1764C8.70739 74.0738 9.02124 72.6002 10.124 71.885C11.2268 71.1697 12.7003 71.4838 13.4155 72.5864C13.7007 73.0261 14.0728 73.5476 14.5037 74.1518C18.2876 79.4571 26.1619 90.4965 16.4011 105.38C16.1846 105.711 15.889 105.982 15.5412 106.17C15.1933 106.357 14.8042 106.455 14.4089 106.455C13.9458 106.455 13.4927 106.32 13.1059 106.065Z" fill="#FF6E83"/>
<path d="M59.5276 61.1033C59.5276 62.4157 60.5914 63.4795 61.9038 63.4795C63.2162 63.4795 64.28 62.4157 64.28 61.1033C64.28 59.7909 63.2162 58.7271 61.9038 58.7271C60.5914 58.7271 59.5276 59.7909 59.5276 61.1033ZM8.86932 57.1051C10.1433 57.1051 11.176 58.138 11.176 59.4118C11.176 60.6856 10.1433 61.7185 8.86932 61.7185C7.59529 61.7185 6.56264 60.6856 6.56264 59.4118C6.56264 58.138 7.5955 57.1051 8.86932 57.1051ZM75.0194 91.9732C74.661 91.5852 74.2312 91.1493 73.7761 90.6878C71.4668 88.3453 68.304 85.1375 66.9355 80.7505C65.2914 75.4802 66.703 69.8793 71.1314 64.1031C71.9 63.1004 73.3357 62.9113 74.3381 63.6795C75.3404 64.4481 75.5301 65.8836 74.7617 66.8862C71.2418 71.4773 70.1102 75.5668 71.3022 79.3881C72.3403 82.7158 74.9426 85.3554 77.0334 87.4762C77.5153 87.9651 77.9705 88.4266 78.3795 88.8693C79.2364 89.7973 79.179 91.2442 78.2513 92.1012C77.8293 92.4922 77.2751 92.7091 76.6998 92.7084C76.3841 92.7089 76.0717 92.6438 75.7824 92.5172C75.4931 92.3907 75.2333 92.2054 75.0194 91.9732Z" fill="#59CAFC"/>
</svg>
