<svg width="66" height="66" viewBox="0 0 66 66" fill="none" xmlns="http://www.w3.org/2000/svg">
<rect width="66" height="66" rx="33" fill="#813E95"/>
<path d="M42.5625 20.7812H23.4375C22.733 20.7812 22.0574 21.0611 21.5592 21.5592C21.0611 22.0574 20.7812 22.733 20.7812 23.4375V42.5625C20.7812 43.267 21.0611 43.9426 21.5592 44.4408C22.0574 44.9389 22.733 45.2188 23.4375 45.2188H42.5625C43.267 45.2188 43.9426 44.9389 44.4408 44.4408C44.9389 43.9426 45.2188 43.267 45.2188 42.5625V23.4375C45.2188 22.733 44.9389 22.0574 44.4408 21.5592C43.9426 21.0611 43.267 20.7812 42.5625 20.7812ZM42.0312 31.4062H34.5938V23.9688H42.0312V31.4062ZM31.4062 23.9688V31.4062H23.9688V23.9688H31.4062ZM23.9688 34.5938H31.4062V42.0312H23.9688V34.5938ZM34.5938 42.0312V34.5938H42.0312V42.0312H34.5938Z" fill="white"/>
</svg>
