<svg width="66" height="67" viewBox="0 0 66 67" fill="none" xmlns="http://www.w3.org/2000/svg">
<rect y="0.5" width="66" height="66" rx="33" fill="#953E4D"/>
<path d="M37.8317 40.5524C38.8121 39.5924 39.4844 38.3621 39.7627 37.0185C40.041 35.6749 39.9128 34.2789 39.3944 33.0085C38.876 31.738 37.9909 30.6508 36.852 29.8855C35.7132 29.1202 34.3721 28.7115 33 28.7115C31.6279 28.7115 30.2868 29.1202 29.148 29.8855C28.0091 30.6508 27.124 31.738 26.6056 33.0085C26.0872 34.2789 25.959 35.6749 26.2373 37.0185C26.5156 38.3621 27.1879 39.5924 28.1683 40.5524C26.5083 41.4347 25.1282 42.7638 24.1839 44.3893C23.9817 44.7547 23.931 45.1849 24.0427 45.5874C24.1544 45.9898 24.4197 46.3323 24.7814 46.5412C25.143 46.75 25.5722 46.8086 25.9767 46.7042C26.3811 46.5998 26.7283 46.3409 26.9437 45.9831C27.5665 44.9308 28.4526 44.059 29.5148 43.4534C30.577 42.8478 31.7786 42.5293 33.0013 42.5293C34.224 42.5293 35.4257 42.8478 36.4878 43.4534C37.55 44.059 38.4361 44.9308 39.0589 45.9831C39.1614 46.1683 39.2998 46.3313 39.4661 46.4625C39.6323 46.5936 39.823 46.6904 40.027 46.747C40.231 46.8037 40.4443 46.8191 40.6543 46.7924C40.8644 46.7657 41.067 46.6974 41.2504 46.5915C41.4337 46.4856 41.5942 46.3443 41.7223 46.1757C41.8504 46.0071 41.9436 45.8147 41.9965 45.6096C42.0495 45.4046 42.061 45.1911 42.0305 44.9816C41.9999 44.7721 41.928 44.5707 41.8188 44.3893C40.8737 42.7634 39.4927 41.4343 37.8317 40.5524ZM29.2812 35.625C29.2812 34.8895 29.4993 34.1705 29.908 33.559C30.3166 32.9474 30.8974 32.4708 31.5769 32.1893C32.2564 31.9079 33.0041 31.8342 33.7255 31.9777C34.4469 32.1212 35.1095 32.4754 35.6296 32.9955C36.1496 33.5155 36.5038 34.1781 36.6473 34.8995C36.7908 35.6209 36.7171 36.3686 36.4357 37.0481C36.1542 37.7276 35.6776 38.3084 35.066 38.717C34.4545 39.1257 33.7355 39.3438 33 39.3438C32.0137 39.3438 31.0678 38.952 30.3704 38.2546C29.673 37.5572 29.2812 36.6113 29.2812 35.625ZM48.8326 36.8987C48.6652 37.0245 48.4746 37.1162 48.2718 37.1683C48.069 37.2205 47.8578 37.2322 47.6505 37.2027C47.4432 37.1732 47.2437 37.1031 47.0634 36.9965C46.8832 36.8899 46.7257 36.7488 46.6 36.5813C45.4937 35.1084 43.9637 33.9795 42.7046 33.7072C42.3698 33.6348 42.0673 33.4564 41.8418 33.1986C41.6163 32.9408 41.4799 32.6171 41.4528 32.2757C41.4256 31.9342 41.5093 31.5931 41.6912 31.3029C41.8731 31.0127 42.1437 30.7888 42.4629 30.6645C42.8603 30.5094 43.2144 30.2608 43.4954 29.9399C43.7764 29.619 43.976 29.2351 44.0773 28.8207C44.1786 28.4064 44.1786 27.9737 44.0773 27.5594C43.976 27.145 43.7764 26.7611 43.4954 26.4402C43.2144 26.1193 42.8602 25.8708 42.4629 25.7156C42.0655 25.5605 41.6367 25.5034 41.2126 25.5491C40.7884 25.5948 40.3816 25.7419 40.0264 25.9781C39.6711 26.2142 39.378 26.5325 39.1718 26.9059C39.074 27.0951 38.9393 27.2628 38.7756 27.3991C38.6118 27.5353 38.4225 27.6374 38.2186 27.6992C38.0148 27.7611 37.8007 27.7814 37.5888 27.7591C37.377 27.7367 37.1718 27.6722 36.9854 27.5692C36.7989 27.4662 36.635 27.3269 36.5033 27.1595C36.3716 26.992 36.2748 26.7999 36.2187 26.5945C36.1625 26.389 36.148 26.1744 36.1762 25.9632C36.2044 25.7521 36.2746 25.5488 36.3827 25.3652C36.7771 24.6679 37.3106 24.0591 37.9502 23.5767C38.5898 23.0942 39.3217 22.7484 40.1006 22.5608C40.8794 22.3731 41.6885 22.3476 42.4776 22.4858C43.2667 22.624 44.019 22.923 44.6877 23.3642C45.3564 23.8054 45.9272 24.3794 46.3647 25.0505C46.8022 25.7216 47.0971 26.4755 47.231 27.2654C47.3648 28.0553 47.3349 28.8642 47.1429 29.642C46.951 30.4198 46.6012 31.1498 46.1152 31.7867C47.2846 32.5657 48.3112 33.5402 49.15 34.6674C49.4038 35.0054 49.5129 35.4304 49.4533 35.8488C49.3938 36.2672 49.1705 36.6449 48.8326 36.8987ZM23.2954 33.7112C22.0363 33.9834 20.5063 35.1124 19.4 36.5866C19.1455 36.9245 18.7672 37.1476 18.3482 37.2066C17.9293 37.2656 17.5041 37.1558 17.1661 36.9013C16.8281 36.6468 16.6051 36.2685 16.5461 35.8496C16.487 35.4306 16.5968 35.0054 16.8513 34.6674C17.6905 33.5405 18.717 32.5661 19.8861 31.7867C19.4001 31.1498 19.0503 30.4198 18.8584 29.642C18.6664 28.8642 18.6365 28.0553 18.7704 27.2654C18.9042 26.4755 19.1991 25.7216 19.6366 25.0505C20.0741 24.3794 20.645 23.8054 21.3136 23.3642C21.9823 22.923 22.7346 22.624 23.5237 22.4858C24.3128 22.3476 25.1219 22.3731 25.9008 22.5608C26.6796 22.7484 27.4115 23.0942 28.0511 23.5767C28.6907 24.0591 29.2242 24.6679 29.6186 25.3652C29.7267 25.5488 29.7969 25.7521 29.8251 25.9632C29.8533 26.1744 29.8389 26.389 29.7827 26.5945C29.7265 26.7999 29.6297 26.992 29.498 27.1595C29.3663 27.3269 29.2024 27.4662 29.016 27.5692C28.8295 27.6722 28.6243 27.7367 28.4125 27.7591C28.2007 27.7814 27.9865 27.7611 27.7827 27.6992C27.5789 27.6374 27.3895 27.5353 27.2258 27.3991C27.0621 27.2628 26.9273 27.0951 26.8295 26.9059C26.6233 26.5325 26.3302 26.2142 25.975 25.9781C25.6198 25.7419 25.2129 25.5948 24.7888 25.5491C24.3647 25.5034 23.9358 25.5605 23.5384 25.7156C23.1411 25.8708 22.7869 26.1193 22.5059 26.4402C22.2249 26.7611 22.0253 27.145 21.924 27.5594C21.8228 27.9737 21.8228 28.4064 21.924 28.8207C22.0253 29.2351 22.2249 29.619 22.5059 29.9399C22.7869 30.2608 23.1411 30.5094 23.5384 30.6645C23.8576 30.7888 24.1282 31.0127 24.3101 31.3029C24.4921 31.5931 24.5757 31.9342 24.5486 32.2757C24.5214 32.6171 24.385 32.9408 24.1595 33.1986C23.9341 33.4564 23.6315 33.6348 23.2967 33.7072L23.2954 33.7112Z" fill="white"/>
</svg>
