<svg width="66" height="67" viewBox="0 0 66 67" fill="none" xmlns="http://www.w3.org/2000/svg">
<rect y="0.5" width="66" height="66" rx="33" fill="#3E4D95"/>
<path d="M34.5938 27.125V32.5982L39.132 35.3209C39.3155 35.4265 39.4761 35.5676 39.6045 35.7359C39.7329 35.9043 39.8264 36.0965 39.8797 36.3014C39.933 36.5063 39.9448 36.7198 39.9147 36.9293C39.8845 37.1389 39.8129 37.3404 39.7041 37.5219C39.5952 37.7035 39.4512 37.8616 39.2806 37.9869C39.1099 38.1122 38.916 38.2023 38.7102 38.2518C38.5044 38.3014 38.2907 38.3094 38.0817 38.2755C37.8728 38.2416 37.6726 38.1663 37.493 38.0542L32.1805 34.8667C31.9445 34.7251 31.749 34.5249 31.6133 34.2854C31.4777 34.0459 31.4063 33.7753 31.4062 33.5V27.125C31.4062 26.7024 31.5742 26.297 31.873 25.9981C32.1719 25.6992 32.5773 25.5313 33 25.5313C33.4227 25.5313 33.8281 25.6992 34.127 25.9981C34.4258 26.297 34.5938 26.7024 34.5938 27.125ZM33 20.2188C31.2536 20.2143 29.5238 20.5564 27.9106 21.2253C26.2974 21.8942 24.833 22.8766 23.6022 24.1155C22.9793 24.745 22.4069 25.36 21.8438 25.9749V25C21.8438 24.5774 21.6758 24.172 21.377 23.8731C21.0781 23.5742 20.6727 23.4063 20.25 23.4063C19.8273 23.4063 19.4219 23.5742 19.123 23.8731C18.8242 24.172 18.6562 24.5774 18.6562 25V30.3125C18.6562 30.7352 18.8242 31.1406 19.123 31.4395C19.4219 31.7384 19.8273 31.9063 20.25 31.9063H25.5625C25.9852 31.9063 26.3906 31.7384 26.6895 31.4395C26.9883 31.1406 27.1562 30.7352 27.1562 30.3125C27.1562 29.8899 26.9883 29.4845 26.6895 29.1856C26.3906 28.8867 25.9852 28.7188 25.5625 28.7188H23.6726C24.3672 27.9219 25.0804 27.1543 25.8627 26.3627C27.2654 24.9596 29.0505 24.001 30.9949 23.6066C32.9394 23.2123 34.9569 23.3998 36.7954 24.1456C38.6339 24.8914 40.2118 26.1625 41.332 27.8C42.4522 29.4376 43.065 31.3689 43.0937 33.3527C43.1225 35.3365 42.566 37.2848 41.4937 38.9542C40.4215 40.6235 38.881 41.9398 37.0649 42.7386C35.2488 43.5373 33.2375 43.7832 31.2825 43.4454C29.3274 43.1076 27.5153 42.2011 26.0725 40.8393C25.765 40.549 25.3548 40.3928 24.9321 40.405C24.5094 40.4172 24.1089 40.5968 23.8187 40.9043C23.5284 41.2118 23.3722 41.6221 23.3844 42.0447C23.3966 42.4674 23.5762 42.8679 23.8837 43.1582C25.4603 44.6463 27.3771 45.7259 29.4669 46.3026C31.5567 46.8794 33.7559 46.9358 35.8726 46.467C37.9892 45.9982 39.9589 45.0183 41.6096 43.613C43.2604 42.2077 44.542 40.4196 45.3427 38.405C46.1433 36.3903 46.4386 34.2103 46.2028 32.0552C45.9669 29.9001 45.2071 27.8356 43.9897 26.0417C42.7722 24.2479 41.1342 22.7794 39.2186 21.7644C37.3029 20.7494 35.1679 20.2187 33 20.2188Z" fill="white"/>
</svg>
