<svg width="66" height="66" viewBox="0 0 66 66" fill="none" xmlns="http://www.w3.org/2000/svg">
<rect width="66" height="66" rx="33" fill="#953E4D"/>
<path d="M34.5938 26.625V32.0982L39.132 34.8209C39.3155 34.9265 39.4761 35.0676 39.6045 35.2359C39.7329 35.4043 39.8264 35.5965 39.8797 35.8014C39.933 36.0063 39.9448 36.2198 39.9147 36.4293C39.8845 36.6389 39.8129 36.8404 39.7041 37.0219C39.5952 37.2035 39.4512 37.3616 39.2806 37.4869C39.1099 37.6122 38.916 37.7023 38.7102 37.7518C38.5044 37.8014 38.2907 37.8094 38.0817 37.7755C37.8728 37.7416 37.6726 37.6663 37.493 37.5542L32.1805 34.3667C31.9445 34.2251 31.749 34.0249 31.6133 33.7854C31.4777 33.5459 31.4063 33.2753 31.4062 33V26.625C31.4062 26.2024 31.5742 25.797 31.873 25.4981C32.1719 25.1992 32.5773 25.0313 33 25.0313C33.4227 25.0313 33.8281 25.1992 34.127 25.4981C34.4258 25.797 34.5938 26.2024 34.5938 26.625ZM33 19.7188C31.2536 19.7143 29.5238 20.0564 27.9106 20.7253C26.2974 21.3942 24.833 22.3766 23.6022 23.6155C22.9793 24.245 22.4069 24.86 21.8438 25.4749V24.5C21.8438 24.0774 21.6758 23.672 21.377 23.3731C21.0781 23.0742 20.6727 22.9063 20.25 22.9063C19.8273 22.9063 19.4219 23.0742 19.123 23.3731C18.8242 23.672 18.6562 24.0774 18.6562 24.5V29.8125C18.6562 30.2352 18.8242 30.6406 19.123 30.9395C19.4219 31.2384 19.8273 31.4063 20.25 31.4063H25.5625C25.9852 31.4063 26.3906 31.2384 26.6895 30.9395C26.9883 30.6406 27.1562 30.2352 27.1562 29.8125C27.1562 29.3899 26.9883 28.9845 26.6895 28.6856C26.3906 28.3867 25.9852 28.2188 25.5625 28.2188H23.6726C24.3672 27.4219 25.0804 26.6543 25.8627 25.8627C27.2654 24.4596 29.0505 23.501 30.9949 23.1066C32.9394 22.7123 34.9569 22.8998 36.7954 23.6456C38.6339 24.3914 40.2118 25.6625 41.332 27.3C42.4522 28.9376 43.065 30.8689 43.0937 32.8527C43.1225 34.8365 42.566 36.7848 41.4937 38.4542C40.4215 40.1235 38.881 41.4398 37.0649 42.2386C35.2488 43.0373 33.2375 43.2832 31.2825 42.9454C29.3274 42.6076 27.5153 41.7011 26.0725 40.3393C25.765 40.049 25.3548 39.8928 24.9321 39.905C24.5094 39.9172 24.1089 40.0968 23.8187 40.4043C23.5284 40.7118 23.3722 41.1221 23.3844 41.5447C23.3966 41.9674 23.5762 42.3679 23.8837 42.6582C25.4603 44.1463 27.3771 45.2259 29.4669 45.8026C31.5567 46.3794 33.7559 46.4358 35.8726 45.967C37.9892 45.4982 39.9589 44.5183 41.6096 43.113C43.2604 41.7077 44.542 39.9196 45.3427 37.905C46.1433 35.8903 46.4386 33.7103 46.2028 31.5552C45.9669 29.4001 45.2071 27.3356 43.9897 25.5417C42.7722 23.7479 41.1342 22.2794 39.2186 21.2644C37.3029 20.2494 35.1679 19.7187 33 19.7188Z" fill="white"/>
</svg>
