 <svg width="16" height="16" viewBox="0 0 16 16" fill="none" xmlns="http://www.w3.org/2000/svg">
                                        <path d="M8.75 5.00002V7.57565L10.8856 8.8569C10.972 8.90658 11.0476 8.97297 11.108 9.0522C11.1684 9.13142 11.2124 9.22189 11.2375 9.31831C11.2626 9.41474 11.2682 9.5152 11.254 9.61381C11.2398 9.71243 11.2061 9.80723 11.1549 9.89268C11.1036 9.97813 11.0359 10.0525 10.9556 10.1115C10.8753 10.1705 10.784 10.2128 10.6872 10.2362C10.5903 10.2595 10.4897 10.2633 10.3914 10.2473C10.2931 10.2313 10.1989 10.1959 10.1144 10.1431L7.61438 8.64315C7.50327 8.57654 7.41131 8.4823 7.34746 8.36959C7.2836 8.25688 7.25003 8.12956 7.25 8.00002V5.00002C7.25 4.80111 7.32902 4.61034 7.46967 4.46969C7.61032 4.32904 7.80109 4.25002 8 4.25002C8.19891 4.25002 8.38968 4.32904 8.53033 4.46969C8.67098 4.61034 8.75 4.80111 8.75 5.00002ZM8 1.75002C7.17818 1.7479 6.36412 1.9089 5.60497 2.22367C4.84582 2.53844 4.15669 3.00074 3.5775 3.58377C3.28438 3.88002 3.015 4.1694 2.75 4.45877V4.00002C2.75 3.80111 2.67098 3.61034 2.53033 3.46969C2.38968 3.32904 2.19891 3.25002 2 3.25002C1.80109 3.25002 1.61032 3.32904 1.46967 3.46969C1.32902 3.61034 1.25 3.80111 1.25 4.00002V6.50002C1.25 6.69893 1.32902 6.8897 1.46967 7.03035C1.61032 7.171 1.80109 7.25002 2 7.25002H4.5C4.69891 7.25002 4.88968 7.171 5.03033 7.03035C5.17098 6.8897 5.25 6.69893 5.25 6.50002C5.25 6.30111 5.17098 6.11034 5.03033 5.96969C4.88968 5.82904 4.69891 5.75002 4.5 5.75002H3.61063C3.9375 5.37502 4.27313 5.01377 4.64125 4.64127C5.30135 3.98098 6.1414 3.52987 7.05643 3.3443C7.97147 3.15874 8.92089 3.24696 9.78607 3.59793C10.6512 3.9489 11.3938 4.54706 11.921 5.31767C12.4481 6.08827 12.7365 6.99714 12.75 7.9307C12.7635 8.86426 12.5016 9.7811 11.997 10.5667C11.4925 11.3522 10.7675 11.9717 9.9129 12.3476C9.05826 12.7235 8.11179 12.8392 7.19176 12.6802C6.27174 12.5212 5.41896 12.0947 4.74 11.4538C4.59529 11.3172 4.40225 11.2437 4.20335 11.2494C4.00444 11.2552 3.81596 11.3397 3.67938 11.4844C3.54279 11.6291 3.46928 11.8221 3.47503 12.0211C3.48077 12.22 3.56529 12.4084 3.71 12.545C4.45189 13.2453 5.35393 13.7534 6.33737 14.0248C7.3208 14.2962 8.35573 14.3227 9.35179 14.1021C10.3479 13.8815 11.2748 13.4204 12.0516 12.7591C12.8284 12.0977 13.4315 11.2563 13.8083 10.3082C14.1851 9.36014 14.3241 8.33424 14.2131 7.32009C14.1021 6.30594 13.7445 5.33438 13.1716 4.49023C12.5987 3.64609 11.8279 2.95502 10.9264 2.47736C10.0249 1.99971 9.0202 1.74999 8 1.75002Z" fill="#3A3A3A"/>
                                    </svg>        