 <svg width="16" height="16" viewBox="0 0 16 16" fill="none" xmlns="http://www.w3.org/2000/svg">
                                        <path d="M13.8838 6.61598L8.88376 1.61598C8.64935 1.38164 8.33146 1.25 8.00001 1.25C7.66855 1.25 7.35067 1.38164 7.11626 1.61598L2.11626 6.61598C1.99971 6.73181 1.90732 6.86963 1.84445 7.02145C1.78158 7.17326 1.74948 7.33604 1.75001 7.50036V13.5004C1.75001 13.6993 1.82902 13.89 1.96968 14.0307C2.11033 14.1713 2.30109 14.2504 2.50001 14.2504H6.50001C6.69892 14.2504 6.88968 14.1713 7.03034 14.0307C7.17099 13.89 7.25001 13.6993 7.25001 13.5004V10.2504H8.75001V13.5004C8.75001 13.6993 8.82902 13.89 8.96968 14.0307C9.11033 14.1713 9.30109 14.2504 9.50001 14.2504H13.5C13.6989 14.2504 13.8897 14.1713 14.0303 14.0307C14.171 13.89 14.25 13.6993 14.25 13.5004V7.50036C14.2505 7.33604 14.2184 7.17326 14.1556 7.02145C14.0927 6.86963 14.0003 6.73181 13.8838 6.61598ZM12.75 12.7504H10.25V9.50036C10.25 9.30145 10.171 9.11068 10.0303 8.97003C9.88968 8.82938 9.69892 8.75036 9.50001 8.75036H6.50001C6.30109 8.75036 6.11033 8.82938 5.96968 8.97003C5.82902 9.11068 5.75001 9.30145 5.75001 9.50036V12.7504H3.25001V7.60348L8.00001 2.85348L12.75 7.60348V12.7504Z" fill="#3a3a3a"/>
                                    </svg>