<svg width="35" height="33" viewBox="0 0 35 33" fill="none" xmlns="http://www.w3.org/2000/svg">
<ellipse cx="17.9333" cy="16.5265" rx="17.0667" ry="16" fill="url(#paint0_linear_5_20)"/>
<path d="M23.3666 9.77649H12.3666C12.0351 9.77649 11.7171 9.90819 11.4827 10.1426C11.2483 10.377 11.1166 10.695 11.1166 11.0265V22.0265C11.1166 22.358 11.2483 22.676 11.4827 22.9104C11.7171 23.1448 12.0351 23.2765 12.3666 23.2765H23.3666C23.6981 23.2765 24.0161 23.1448 24.2505 22.9104C24.4849 22.676 24.6166 22.358 24.6166 22.0265V11.0265C24.6166 10.695 24.4849 10.377 24.2505 10.1426C24.0161 9.90819 23.6981 9.77649 23.3666 9.77649ZM23.1166 21.7765H12.6166V11.2765H23.1166V21.7765ZM16.8666 19.5265V16.0265C16.8668 15.8706 16.9155 15.7187 17.0059 15.5918C17.0964 15.4649 17.2242 15.3693 17.3715 15.3184C17.5188 15.2674 17.6783 15.2637 17.8279 15.3076C17.9774 15.3515 18.1096 15.4409 18.206 15.5634C18.5869 15.3637 19.0129 15.2657 19.4428 15.2788C19.8727 15.2919 20.292 15.4157 20.66 15.6382C21.0281 15.8607 21.3325 16.1745 21.5439 16.549C21.7553 16.9236 21.8664 17.3464 21.8666 17.7765V19.5265C21.8666 19.7254 21.7876 19.9162 21.6469 20.0568C21.5063 20.1975 21.3155 20.2765 21.1166 20.2765C20.9177 20.2765 20.7269 20.1975 20.5863 20.0568C20.4456 19.9162 20.3666 19.7254 20.3666 19.5265V17.7765C20.3666 17.5113 20.2613 17.2569 20.0737 17.0694C19.8862 16.8818 19.6318 16.7765 19.3666 16.7765C19.1014 16.7765 18.847 16.8818 18.6595 17.0694C18.472 17.2569 18.3666 17.5113 18.3666 17.7765V19.5265C18.3666 19.7254 18.2876 19.9162 18.1469 20.0568C18.0063 20.1975 17.8155 20.2765 17.6166 20.2765C17.4177 20.2765 17.2269 20.1975 17.0863 20.0568C16.9456 19.9162 16.8666 19.7254 16.8666 19.5265ZM15.8666 16.0265V19.5265C15.8666 19.7254 15.7876 19.9162 15.6469 20.0568C15.5063 20.1975 15.3155 20.2765 15.1166 20.2765C14.9177 20.2765 14.7269 20.1975 14.5863 20.0568C14.4456 19.9162 14.3666 19.7254 14.3666 19.5265V16.0265C14.3666 15.8276 14.4456 15.6368 14.5863 15.4962C14.7269 15.3555 14.9177 15.2765 15.1166 15.2765C15.3155 15.2765 15.5063 15.3555 15.6469 15.4962C15.7876 15.6368 15.8666 15.8276 15.8666 16.0265ZM14.1166 13.5265C14.1166 13.3287 14.1753 13.1354 14.2851 12.9709C14.395 12.8065 14.5512 12.6783 14.7339 12.6026C14.9167 12.5269 15.1177 12.5071 15.3117 12.5457C15.5057 12.5843 15.6839 12.6795 15.8237 12.8194C15.9636 12.9592 16.0588 13.1374 16.0974 13.3314C16.136 13.5254 16.1162 13.7264 16.0405 13.9092C15.9648 14.0919 15.8366 14.2481 15.6722 14.358C15.5077 14.4678 15.3144 14.5265 15.1166 14.5265C14.8514 14.5265 14.597 14.4211 14.4095 14.2336C14.222 14.0461 14.1166 13.7917 14.1166 13.5265Z" fill="white"/>
<defs>
<linearGradient id="paint0_linear_5_20" x1="-5.20596" y1="21.1373" x2="12.2873" y2="-6.43441" gradientUnits="userSpaceOnUse">
<stop stop-color="#F300CC"/>
<stop offset="1" stop-color="#813E95"/>
</linearGradient>
</defs>
</svg>
