<?xml version="1.0" encoding="UTF-8"?>
<!DOCTYPE svg PUBLIC "-//W3C//DTD SVG 1.1//EN" "http://www.w3.org/Graphics/SVG/1.1/DTD/svg11.dtd">
<!-- Creator: CorelDRAW -->
<svg xmlns="http://www.w3.org/2000/svg" xml:space="preserve" width="0.575697in" height="0.968563in" version="1.1" style="shape-rendering:geometricPrecision; text-rendering:geometricPrecision; image-rendering:optimizeQuality; fill-rule:evenodd; clip-rule:evenodd"
viewBox="0 0 19.89 33.46"
 xmlns:xlink="http://www.w3.org/1999/xlink"
 xmlns:xodm="http://www.corel.com/coreldraw/odm/2003">
 <defs>
  <style type="text/css">
   <![CDATA[
    .fil0 {fill:url(#id0)}
    .fil1 {fill:url(#id1)}
   ]]>
  </style>
  <linearGradient id="id0" gradientUnits="userSpaceOnUse" x1="9.17" y1="11.39" x2="10.12" y2="-1.84">
   <stop offset="0" style="stop-opacity:1; stop-color:#813E95"/>
   <stop offset="1" style="stop-opacity:1; stop-color:#F300CC"/>
  </linearGradient>
  <linearGradient id="id1" gradientUnits="userSpaceOnUse" x1="-1.44" y1="25.26" x2="9.59" y2="19.2">
   <stop offset="0" style="stop-opacity:1; stop-color:#F300CC"/>
   <stop offset="1" style="stop-opacity:1; stop-color:#813E95"/>
  </linearGradient>
 </defs>
 <g id="Layer_x0020_1">
  <metadata id="CorelCorpID_0Corel-Layer"/>
  <path class="fil0" d="M9.58 0.01c-1.19,-0.05 -2.12,0.22 -2.82,0.81 -1.68,1.95 -3.42,3.91 -5.1,5.86 -0.6,0.65 -0.65,1.46 0.38,1.46l6.46 0c0.65,-0.6 1.36,-1.19 2.01,-1.79 -0.71,-0.76 -1.46,-1.57 -2.17,-2.33 3.15,-0.6 6.35,-1.19 9.55,-1.79l-2.88 9.28c-0.6,-0.65 -1.19,-1.3 -1.74,-1.9 -0.76,1.19 -1.36,2.5 -1.74,3.85l0 5.53c0,1.14 0.54,1.36 1.3,0.81 1.95,-1.68 3.91,-3.42 5.86,-5.15 0.81,-0.71 1.19,-1.68 1.19,-2.88 0,-3.91 0,-7.87 0,-11.77 -3.42,0 -6.84,0 -10.31,0z"/>
  <path class="fil1" d="M0.92 17c1.95,-1.63 3.96,-3.2 5.91,-4.83 1.03,-0.76 1.36,-0.33 1.36,0.65 0,4.23 0,8.46 0,12.7 -0.05,1.36 -0.54,2.22 -1.25,2.77 -1.9,1.63 -3.8,3.26 -5.7,4.88 -0.76,0.54 -1.25,0.33 -1.25,-0.71 0,-4.29 0,-8.63 0,-12.91 0,-1.19 0.22,-1.95 0.92,-2.55z"/>
 </g>
</svg>
