<svg width="56" height="56" viewBox="0 0 56 56" fill="none" xmlns="http://www.w3.org/2000/svg">
<circle cx="28.0052" cy="27.5375" r="27.4843" fill="#F5F5F5"/>
<g clip-path="url(#clip0_7_393)">
<path d="M44.4958 18.5469V37.6609C44.4958 38.9031 43.4899 39.9091 42.2476 39.9091H36.9995V27.1674L28.0053 33.9147L19.011 27.1674V39.9104H13.7629C13.4676 39.9104 13.1751 39.8522 12.9023 39.7392C12.6294 39.6261 12.3815 39.4604 12.1727 39.2515C11.9639 39.0426 11.7984 38.7946 11.6855 38.5216C11.5725 38.2487 11.5145 37.9562 11.5147 37.6609V18.5469C11.5147 15.7669 14.6878 14.1797 16.9112 15.848L19.011 17.4242L28.0053 24.1688L36.9995 17.4214L39.0993 15.848C41.3214 14.181 44.4958 15.7669 44.4958 18.5469Z" fill="url(#paint0_linear_7_393)"/>
</g>
<defs>
<linearGradient id="paint0_linear_7_393" x1="5.64713" y1="31.1039" x2="17.7173" y2="7.33096" gradientUnits="userSpaceOnUse">
<stop stop-color="#F300CC"/>
<stop offset="1" stop-color="#813E95"/>
</linearGradient>
<clipPath id="clip0_7_393">
<rect width="32.9811" height="32.9811" fill="white" transform="translate(11.5147 11.0474)"/>
</clipPath>
</defs>
</svg>
