<svg width="66" height="67" viewBox="0 0 66 67" fill="none" xmlns="http://www.w3.org/2000/svg">
<rect y="0.5" width="66" height="66" rx="33" fill="#3E8F95"/>
<path d="M38.8437 46.7812C38.8437 47.2039 38.6758 47.6093 38.3769 47.9082C38.0781 48.207 37.6727 48.375 37.25 48.375H28.75C28.3273 48.375 27.9219 48.207 27.623 47.9082C27.3242 47.6093 27.1562 47.2039 27.1562 46.7812C27.1562 46.3585 27.3242 45.9531 27.623 45.6543C27.9219 45.3554 28.3273 45.1875 28.75 45.1875H37.25C37.6727 45.1875 38.0781 45.3554 38.3769 45.6543C38.6758 45.9531 38.8437 46.3585 38.8437 46.7812ZM46.6717 24.2668C45.4346 21.8487 43.5762 19.8034 41.2875 18.3407C41.1106 18.2219 40.9116 18.1397 40.7023 18.0991C40.4931 18.0585 40.2778 18.0603 40.0693 18.1044C39.8607 18.1484 39.6632 18.2339 39.4882 18.3556C39.3133 18.4774 39.1645 18.633 39.0508 18.8133C38.9371 18.9936 38.8607 19.1949 38.8261 19.4052C38.7915 19.6155 38.7995 19.8306 38.8495 20.0378C38.8996 20.245 38.9907 20.4401 39.1174 20.6114C39.2442 20.7828 39.404 20.927 39.5875 21.0355C41.4006 22.1915 42.8687 23.8147 43.8375 25.7344C43.9725 25.9944 44.1766 26.2122 44.4273 26.3638C44.678 26.5154 44.9656 26.5949 45.2586 26.5937C45.5134 26.594 45.7646 26.5325 45.9904 26.4144C46.3654 26.2199 46.6478 25.8844 46.7756 25.4817C46.9034 25.0789 46.866 24.642 46.6717 24.2668ZM22.1585 25.7344C23.1273 23.8147 24.5954 22.1915 26.4085 21.0355C26.5961 20.9293 26.7601 20.7862 26.8908 20.6147C27.0214 20.4433 27.1159 20.2472 27.1686 20.0382C27.2213 19.8292 27.231 19.6117 27.1972 19.3988C27.1634 19.186 27.0868 18.9822 26.972 18.7998C26.8572 18.6173 26.7066 18.4601 26.5293 18.3376C26.352 18.215 26.1517 18.1297 25.9405 18.0868C25.7292 18.0439 25.5115 18.0443 25.3005 18.0879C25.0894 18.1316 24.8894 18.2176 24.7125 18.3407C22.4237 19.8034 20.5654 21.8487 19.3283 24.2668C19.134 24.642 19.0966 25.0789 19.2244 25.4817C19.3522 25.8844 19.6346 26.2199 20.0096 26.4144C20.2354 26.5325 20.4866 26.594 20.7414 26.5937C21.0337 26.5942 21.3205 26.5143 21.5704 26.3627C21.8204 26.2112 22.0238 25.9938 22.1585 25.7344ZM45.2028 38.7965C45.5026 39.19 45.6865 39.6594 45.7339 40.1518C45.7813 40.6442 45.6902 41.14 45.471 41.5834C45.2518 42.0269 44.9131 42.4003 44.4931 42.6616C44.073 42.9229 43.5884 43.0617 43.0937 43.0625H22.9062C22.4112 43.0625 21.9261 42.9242 21.5055 42.6632C21.0849 42.4021 20.7456 42.0288 20.5259 41.5852C20.3062 41.1416 20.2148 40.6455 20.262 40.1528C20.3093 39.66 20.4932 39.1903 20.7932 38.7965C21.7455 37.5574 22.8823 35.261 22.9023 31.367C22.9033 28.6894 23.968 26.122 25.8621 24.2294C27.7561 22.3368 30.3244 21.2742 33.002 21.2752C35.6795 21.2763 38.247 22.341 40.1396 24.235C42.0322 26.1291 43.0948 28.6974 43.0937 31.375C43.1137 35.261 44.2505 37.5574 45.2028 38.7965ZM42.0764 39.875C40.9927 38.1484 39.9262 35.4164 39.9062 31.3829C39.9068 30.476 39.7287 29.5778 39.3821 28.7397C39.0355 27.9016 38.5272 27.14 37.8863 26.4983C37.2453 25.8566 36.4843 25.3475 35.6466 24.9999C34.8089 24.6524 33.9109 24.4732 33.004 24.4727C32.097 24.4722 31.1989 24.6503 30.3608 24.9969C29.5227 25.3435 28.761 25.8517 28.1194 26.4927C27.4777 27.1336 26.9685 27.8946 26.621 28.7323C26.2734 29.5701 26.0943 30.468 26.0937 31.375C26.0738 35.4151 25.0073 38.1484 23.9236 39.875H42.0764Z" fill="white"/>
</svg>
