<svg width="108" height="109" viewBox="0 0 108 109" fill="none" xmlns="http://www.w3.org/2000/svg">
<path opacity="0.85" d="M53.941 22.1138C25.1523 22.3753 21.946 30.1631 21.946 30.1631C21.946 30.1631 30.1304 88.0528 30.9826 93.7313C31.8348 99.4097 41.5632 105.13 53.941 105.13C66.3189 105.13 76.0473 99.4013 76.8995 93.7313C77.7517 88.0528 86.0373 30.5513 86.0373 30.5513C86.0373 30.5513 82.7298 22.3753 53.941 22.1138Z" fill="#BAE2FD"/>
<path d="M25.5657 55.0032C27.7679 70.8235 30.4847 90.3226 30.991 93.7229C31.8432 99.4013 41.5716 105.122 53.9494 105.122C66.3272 105.122 76.0557 99.3929 76.9079 93.7229C77.4057 90.39 80.0129 71.7263 82.1897 56.041C82.1897 56.041 61.56 48.3797 49.1147 49.9069C36.6694 51.4257 25.5657 55.0032 25.5657 55.0032Z" fill="url(#paint0_linear_7_562)"/>
<path d="M82.0294 54.7837C83.5566 58.6397 75.7604 71.0428 53.4347 61.5675C32.2651 52.5731 25.5657 55.0031 25.5657 55.0031C28.6707 51.9065 34.906 47.6625 50.2538 47.6625C67.6604 47.6625 80.19 50.1262 82.0294 54.7837Z" fill="url(#paint1_radial_7_562)"/>
<path d="M59.4845 33.1584C57.5438 39.9338 51.916 58.1756 51.916 58.1756C51.916 58.1756 54.3966 60.1163 58.5226 60.1247C63.0198 60.1247 63.7285 58.3613 63.7285 58.3613C63.7285 58.3613 69.2551 40.4147 71.1366 33.7406C71.1366 33.7406 69.3479 34.0528 64.8845 34.0191C60.4041 33.9938 59.4845 33.1584 59.4845 33.1584Z" fill="#9575CD"/>
<path d="M71.6513 77.9447C73.8694 77.9447 75.6675 76.2032 75.6675 74.055C75.6675 71.9068 73.8694 70.1653 71.6513 70.1653C69.4331 70.1653 67.635 71.9068 67.635 74.055C67.635 76.2032 69.4331 77.9447 71.6513 77.9447Z" fill="url(#paint2_radial_7_562)"/>
<path d="M58.3537 76.8479C60.5718 76.8479 62.3699 75.1064 62.3699 72.9582C62.3699 70.81 60.5718 69.0685 58.3537 69.0685C56.1355 69.0685 54.3374 70.81 54.3374 72.9582C54.3374 75.1064 56.1355 76.8479 58.3537 76.8479Z" fill="url(#paint3_radial_7_562)"/>
<path d="M50.3212 94.0434C52.5393 94.0434 54.3374 92.3019 54.3374 90.1537C54.3374 88.0055 52.5393 86.264 50.3212 86.264C48.1031 86.264 46.3049 88.0055 46.3049 90.1537C46.3049 92.3019 48.1031 94.0434 50.3212 94.0434Z" fill="url(#paint4_radial_7_562)"/>
<path d="M61.8385 93.4865C64.0566 93.4865 65.8548 91.7451 65.8548 89.5968C65.8548 87.4486 64.0566 85.7072 61.8385 85.7072C59.6204 85.7072 57.8223 87.4486 57.8223 89.5968C57.8223 91.7451 59.6204 93.4865 61.8385 93.4865Z" fill="url(#paint5_radial_7_562)"/>
<path d="M61.8385 93.4865C64.0566 93.4865 65.8548 91.7451 65.8548 89.5968C65.8548 87.4486 64.0566 85.7072 61.8385 85.7072C59.6204 85.7072 57.8223 87.4486 57.8223 89.5968C57.8223 91.7451 59.6204 93.4865 61.8385 93.4865Z" fill="url(#paint6_radial_7_562)"/>
<path d="M58.3537 76.8479C60.5718 76.8479 62.3699 75.1064 62.3699 72.9582C62.3699 70.81 60.5718 69.0685 58.3537 69.0685C56.1355 69.0685 54.3374 70.81 54.3374 72.9582C54.3374 75.1064 56.1355 76.8479 58.3537 76.8479Z" fill="url(#paint7_radial_7_562)"/>
<path d="M71.6513 77.9447C73.8694 77.9447 75.6675 76.2032 75.6675 74.055C75.6675 71.9068 73.8694 70.1653 71.6513 70.1653C69.4331 70.1653 67.635 71.9068 67.635 74.055C67.635 76.2032 69.4331 77.9447 71.6513 77.9447Z" fill="url(#paint8_radial_7_562)"/>
<path d="M36.4837 93.1829C38.5247 93.1829 40.1793 91.5774 40.1793 89.5969C40.1793 87.6165 38.5247 86.011 36.4837 86.011C34.4427 86.011 32.7881 87.6165 32.7881 89.5969C32.7881 91.5774 34.4427 93.1829 36.4837 93.1829Z" fill="url(#paint9_radial_7_562)"/>
<path d="M36.4837 93.1829C38.5247 93.1829 40.1793 91.5774 40.1793 89.5969C40.1793 87.6165 38.5247 86.011 36.4837 86.011C34.4427 86.011 32.7881 87.6165 32.7881 89.5969C32.7881 91.5774 34.4427 93.1829 36.4837 93.1829Z" fill="url(#paint10_radial_7_562)"/>
<path d="M69.5504 98.4056C71.5914 98.4056 73.246 96.8002 73.246 94.8197C73.246 92.8392 71.5914 91.2338 69.5504 91.2338C67.5093 91.2338 65.8547 92.8392 65.8547 94.8197C65.8547 96.8002 67.5093 98.4056 69.5504 98.4056Z" fill="url(#paint11_radial_7_562)"/>
<path d="M69.5504 98.4056C71.5914 98.4056 73.246 96.8002 73.246 94.8197C73.246 92.8392 71.5914 91.2338 69.5504 91.2338C67.5093 91.2338 65.8547 92.8392 65.8547 94.8197C65.8547 96.8002 67.5093 98.4056 69.5504 98.4056Z" fill="url(#paint12_radial_7_562)"/>
<path d="M46.2712 90.1537C46.2712 88.0021 47.9081 86.3906 50.1187 86.264C52.3209 86.1374 54.3712 87.7912 54.3712 89.9428C54.3712 92.0943 52.9875 94.1615 50.2791 94.0518C48.0684 93.9506 46.2712 92.2968 46.2712 90.1537Z" fill="url(#paint13_radial_7_562)"/>
<path d="M55.4513 103.468C57.6694 103.468 59.4676 101.727 59.4676 99.5784C59.4676 97.4302 57.6694 95.6887 55.4513 95.6887C53.2332 95.6887 51.4351 97.4302 51.4351 99.5784C51.4351 101.727 53.2332 103.468 55.4513 103.468Z" fill="url(#paint14_radial_7_562)"/>
<path d="M51.4014 99.5784C51.4014 97.4268 53.0382 95.8153 55.2489 95.6887C57.4511 95.5621 59.5014 97.2159 59.5014 99.3674C59.5014 101.519 58.1176 103.586 55.4092 103.477C53.1986 103.384 51.4014 101.73 51.4014 99.5784Z" fill="url(#paint15_radial_7_562)"/>
<path d="M44.1029 86.7872C46.321 86.7872 48.1192 85.0457 48.1192 82.8975C48.1192 80.7493 46.321 79.0078 44.1029 79.0078C41.8848 79.0078 40.0867 80.7493 40.0867 82.8975C40.0867 85.0457 41.8848 86.7872 44.1029 86.7872Z" fill="url(#paint16_radial_7_562)"/>
<path d="M40.0527 82.8975C40.0527 80.7459 41.6896 79.1343 43.9002 79.0078C46.1024 78.8812 48.1527 80.535 48.1527 82.6865C48.1527 84.8381 46.769 86.9053 44.0605 86.7956C41.8499 86.7028 40.0527 85.049 40.0527 82.8975Z" fill="url(#paint17_radial_7_562)"/>
<path d="M54.3375 85.3529C56.5557 85.3529 58.3538 83.6114 58.3538 81.4632C58.3538 79.315 56.5557 77.5735 54.3375 77.5735C52.1194 77.5735 50.3213 79.315 50.3213 81.4632C50.3213 83.6114 52.1194 85.3529 54.3375 85.3529Z" fill="url(#paint18_radial_7_562)"/>
<path d="M50.2876 81.4631C50.2876 79.3116 51.9245 77.7 54.1351 77.5735C56.3373 77.4469 58.3876 79.1006 58.3876 81.2522C58.3876 83.4038 57.0038 85.471 54.2954 85.3613C52.0848 85.26 50.2876 83.6147 50.2876 81.4631Z" fill="url(#paint19_radial_7_562)"/>
<path d="M66.6225 88.5844C68.8406 88.5844 70.6387 86.843 70.6387 84.6947C70.6387 82.5465 68.8406 80.8051 66.6225 80.8051C64.4043 80.8051 62.6062 82.5465 62.6062 84.6947C62.6062 86.843 64.4043 88.5844 66.6225 88.5844Z" fill="url(#paint20_radial_7_562)"/>
<path d="M62.5725 84.6947C62.5725 82.5431 64.2094 80.9316 66.42 80.805C68.6222 80.6785 70.6725 82.3322 70.6725 84.4838C70.6725 86.6353 69.2888 88.7025 66.5803 88.5928C64.3697 88.4916 62.5725 86.8463 62.5725 84.6947Z" fill="url(#paint21_radial_7_562)"/>
<path d="M36.1293 79.995C38.3474 79.995 40.1455 78.2535 40.1455 76.1053C40.1455 73.957 38.3474 72.2156 36.1293 72.2156C33.9112 72.2156 32.113 73.957 32.113 76.1053C32.113 78.2535 33.9112 79.995 36.1293 79.995Z" fill="url(#paint22_radial_7_562)"/>
<path d="M32.0793 76.1054C32.0793 73.9538 33.7162 72.3422 35.9268 72.2157C38.129 72.0891 40.1793 73.7429 40.1793 75.8944C40.1793 78.046 38.7956 80.1132 36.0872 80.0035C33.8765 79.9107 32.0793 78.2569 32.0793 76.1054Z" fill="url(#paint23_radial_7_562)"/>
<path d="M43.5543 100.962C45.7724 100.962 47.5706 99.2208 47.5706 97.0725C47.5706 94.9243 45.7724 93.1829 43.5543 93.1829C41.3362 93.1829 39.5381 94.9243 39.5381 97.0725C39.5381 99.2208 41.3362 100.962 43.5543 100.962Z" fill="url(#paint24_radial_7_562)"/>
<path d="M39.5044 97.0809C39.5044 94.9294 41.1413 93.3178 43.3519 93.1913C45.5541 93.0647 47.6044 94.7184 47.6044 96.87C47.6044 99.0216 46.2206 101.089 43.5122 100.979C41.3016 100.878 39.5044 99.2241 39.5044 97.0809Z" fill="url(#paint25_radial_7_562)"/>
<path d="M85.4804 34.5928C85.6154 33.8081 86.4001 31.5131 85.9191 29.851C85.9191 29.851 84.1641 37.5291 54.0001 37.5291C23.836 37.5291 21.9291 29.9353 21.9291 29.9353C21.752 31.4625 22.3932 33.7997 22.5198 34.5928C22.9501 37.1663 21.1191 37.1325 21.1191 37.1325C21.1191 37.1325 21.4145 39.9506 26.477 39.4359C27.4051 39.3431 29.8266 38.7947 31.1345 40.2797C32.3832 41.6972 33.4716 43.005 35.6232 43.6631C38.6945 44.5913 41.0738 42.2203 44.8538 43.0303C47.1826 43.5281 48.6676 44.971 52.6416 45.3928C57.0376 45.8653 58.5479 43.545 60.9104 43.1991C65.1798 42.5747 66.6141 44.161 70.141 44.0597C74.2079 43.95 75.541 41.9925 77.0935 40.9294C79.3885 39.36 81.2869 40.3303 82.2235 40.4231C87.286 40.9463 86.8895 37.1494 86.8895 37.1494C86.8895 37.1494 85.0501 37.1578 85.4804 34.5928Z" fill="#33AC71"/>
<path d="M53.9326 20.4515C35.8004 20.4515 21.946 24.7968 21.946 30.1547C21.946 35.5125 35.792 39.8578 53.9326 39.8578C72.0732 39.8578 85.9192 35.5125 85.9192 30.1547C85.9192 24.7968 72.0648 20.4515 53.9326 20.4515ZM64.7664 33.3525C60.7501 33.3525 57.5017 32.1881 57.5017 30.7622C57.5017 29.3278 60.7585 28.1719 64.7664 28.1719C68.7742 28.1719 72.031 29.3362 72.031 30.7622C72.031 32.1965 68.7742 33.3525 64.7664 33.3525Z" fill="#72E6AC"/>
<path d="M74.0897 4.71564C70.7569 3.82126 68.0484 4.75783 67.289 6.91783L59.6362 32.6691C59.6362 32.6691 61.1972 33.4791 65.8969 33.4791C69.7359 33.4791 71.8284 31.5806 71.8284 31.5806C71.8284 31.5806 77.7937 10.4869 78.0384 9.66002C78.6122 7.77002 77.0006 5.50033 74.0897 4.71564Z" fill="#B39DDB"/>
<path d="M65.8969 33.4791C69.7359 33.4791 71.8284 31.5806 71.8284 31.5806L72.7565 28.2985C72.7565 28.2985 69.525 30.7622 66.0825 31.5638C62.3869 32.4244 59.6362 32.6691 59.6362 32.6691C59.6362 32.6691 61.1972 33.4791 65.8969 33.4791Z" fill="#9575CD"/>
<path d="M76.9795 9.57592C77.413 8.00362 75.8854 6.2109 73.5674 5.57176C71.2493 4.93262 69.0188 5.68909 68.5853 7.26139C68.1517 8.83368 69.6794 10.6264 71.9974 11.2655C74.3154 11.9047 76.546 11.1482 76.9795 9.57592Z" fill="#7E57C2"/>
<path d="M60.5223 29.6906L60.902 28.4165C60.4042 28.5515 59.8726 28.7203 59.3579 28.9396C58.2442 29.4037 57.6451 29.8003 57.4932 30.6018C57.3667 31.2768 58.0248 31.7831 58.0248 31.7831C58.0248 31.7831 57.991 31.2178 58.3032 30.8971C58.9445 30.2306 59.3157 30.0871 60.5223 29.6906Z" fill="#33AC71"/>
<path opacity="0.79" d="M28.1221 49.021C27.3964 43.4016 33.0411 42.8278 33.9693 53.3578L34.3068 65.1028C34.3068 65.1028 34.7455 68.4694 33.0918 68.8322C30.6196 69.3722 30.3411 65.7272 30.3411 65.7272C30.3411 65.7272 28.6874 53.3494 28.1221 49.021Z" fill="white"/>
<defs>
<linearGradient id="paint0_linear_7_562" x1="53.8735" y1="60.8917" x2="53.8735" y2="79.6643" gradientUnits="userSpaceOnUse">
<stop stop-color="#EEB68E"/>
<stop offset="1" stop-color="#F5CEA7"/>
</linearGradient>
<radialGradient id="paint1_radial_7_562" cx="0" cy="0" r="1" gradientUnits="userSpaceOnUse" gradientTransform="translate(42.358 58.2187) rotate(18.7647) scale(56.6196 39.0934)">
<stop stop-color="#C48C63"/>
<stop offset="1" stop-color="#EEB68E"/>
</radialGradient>
<radialGradient id="paint2_radial_7_562" cx="0" cy="0" r="1" gradientUnits="userSpaceOnUse" gradientTransform="translate(72.6089 71.7612) scale(4.78237 4.63843)">
<stop stop-color="#6D4C41"/>
<stop offset="0.999" stop-color="#3D3832"/>
</radialGradient>
<radialGradient id="paint3_radial_7_562" cx="0" cy="0" r="1" gradientUnits="userSpaceOnUse" gradientTransform="translate(59.3062 70.6713) scale(4.78237 4.63843)">
<stop stop-color="#6D4C41"/>
<stop offset="0.999" stop-color="#3D3832"/>
</radialGradient>
<radialGradient id="paint4_radial_7_562" cx="0" cy="0" r="1" gradientUnits="userSpaceOnUse" gradientTransform="translate(51.2797 87.8582) scale(4.78238 4.63843)">
<stop stop-color="#6D4C41"/>
<stop offset="0.999" stop-color="#3D3832"/>
</radialGradient>
<radialGradient id="paint5_radial_7_562" cx="0" cy="0" r="1" gradientUnits="userSpaceOnUse" gradientTransform="translate(62.7953 87.3009) scale(4.78238 4.63843)">
<stop stop-color="#6D4C41"/>
<stop offset="0.999" stop-color="#3D3832"/>
</radialGradient>
<radialGradient id="paint6_radial_7_562" cx="0" cy="0" r="1" gradientUnits="userSpaceOnUse" gradientTransform="translate(62.3836 89.3926) scale(4.75706 4.61388)">
<stop offset="0.528" stop-color="#F5CEA7" stop-opacity="0"/>
<stop offset="1" stop-color="#F5CEA7"/>
</radialGradient>
<radialGradient id="paint7_radial_7_562" cx="0" cy="0" r="1" gradientUnits="userSpaceOnUse" gradientTransform="translate(58.5764 72.8514) scale(4.78237 4.63843)">
<stop offset="0.567" stop-color="#F5CEA7" stop-opacity="0"/>
<stop offset="1" stop-color="#F5CEA7"/>
</radialGradient>
<radialGradient id="paint8_radial_7_562" cx="0" cy="0" r="1" gradientUnits="userSpaceOnUse" gradientTransform="translate(71.8782 73.9413) scale(4.78237 4.63843)">
<stop offset="0.567" stop-color="#F5CEA7" stop-opacity="0"/>
<stop offset="1" stop-color="#F5CEA7"/>
</radialGradient>
<radialGradient id="paint9_radial_7_562" cx="0" cy="0" r="1" gradientUnits="userSpaceOnUse" gradientTransform="translate(37.3663 87.4819) scale(4.40437 4.2718)">
<stop stop-color="#6D4C41"/>
<stop offset="0.999" stop-color="#3D3832"/>
</radialGradient>
<radialGradient id="paint10_radial_7_562" cx="0" cy="0" r="1" gradientUnits="userSpaceOnUse" gradientTransform="translate(36.59 89.2109) scale(4.65919 4.27667)">
<stop offset="0.567" stop-color="#F5CEA7" stop-opacity="0"/>
<stop offset="1" stop-color="#F5CEA7"/>
</radialGradient>
<radialGradient id="paint11_radial_7_562" cx="0" cy="0" r="1" gradientUnits="userSpaceOnUse" gradientTransform="translate(70.4287 92.7062) scale(4.40437 4.2718)">
<stop stop-color="#6D4C41"/>
<stop offset="0.999" stop-color="#3D3832"/>
</radialGradient>
<radialGradient id="paint12_radial_7_562" cx="0" cy="0" r="1" gradientUnits="userSpaceOnUse" gradientTransform="translate(69.6525 94.4345) scale(4.65918 4.27667)">
<stop offset="0.567" stop-color="#F5CEA7" stop-opacity="0"/>
<stop offset="1" stop-color="#F5CEA7"/>
</radialGradient>
<radialGradient id="paint13_radial_7_562" cx="0" cy="0" r="1" gradientUnits="userSpaceOnUse" gradientTransform="translate(50.2605 90.3901) scale(5.09456 4.6763)">
<stop offset="0.567" stop-color="#F5CEA7" stop-opacity="0"/>
<stop offset="1" stop-color="#F5CEA7"/>
</radialGradient>
<radialGradient id="paint14_radial_7_562" cx="0" cy="0" r="1" gradientUnits="userSpaceOnUse" gradientTransform="translate(56.4081 97.2857) scale(4.78238 4.63843)">
<stop stop-color="#6D4C41"/>
<stop offset="0.999" stop-color="#3D3832"/>
</radialGradient>
<radialGradient id="paint15_radial_7_562" cx="0" cy="0" r="1" gradientUnits="userSpaceOnUse" gradientTransform="translate(55.3881 99.812) scale(4.88109 4.53161)">
<stop offset="0.567" stop-color="#F5CEA7" stop-opacity="0"/>
<stop offset="1" stop-color="#F5CEA7"/>
</radialGradient>
<radialGradient id="paint16_radial_7_562" cx="0" cy="0" r="1" gradientUnits="userSpaceOnUse" gradientTransform="translate(45.058 80.6077) scale(4.78238 4.63843)">
<stop stop-color="#6D4C41"/>
<stop offset="0.999" stop-color="#3D3832"/>
</radialGradient>
<radialGradient id="paint17_radial_7_562" cx="0" cy="0" r="1" gradientUnits="userSpaceOnUse" gradientTransform="translate(44.0386 83.1393) scale(5.09456 4.6763)">
<stop offset="0.567" stop-color="#F5CEA7" stop-opacity="0"/>
<stop offset="1" stop-color="#F5CEA7"/>
</radialGradient>
<radialGradient id="paint18_radial_7_562" cx="0" cy="0" r="1" gradientUnits="userSpaceOnUse" gradientTransform="translate(55.2935 79.1699) scale(4.78238 4.63842)">
<stop stop-color="#6D4C41"/>
<stop offset="0.999" stop-color="#3D3832"/>
</radialGradient>
<radialGradient id="paint19_radial_7_562" cx="0" cy="0" r="1" gradientUnits="userSpaceOnUse" gradientTransform="translate(54.2743 81.7007) scale(4.83047 4.62034)">
<stop offset="0.567" stop-color="#F5CEA7" stop-opacity="0"/>
<stop offset="1" stop-color="#F5CEA7"/>
</radialGradient>
<radialGradient id="paint20_radial_7_562" cx="0" cy="0" r="1" gradientUnits="userSpaceOnUse" gradientTransform="translate(67.5818 82.3999) scale(4.78238 4.63843)">
<stop stop-color="#6D4C41"/>
<stop offset="0.999" stop-color="#3D3832"/>
</radialGradient>
<radialGradient id="paint21_radial_7_562" cx="0" cy="0" r="1" gradientUnits="userSpaceOnUse" gradientTransform="translate(66.4031 84.4003) scale(5.00175 4.59111)">
<stop offset="0.507" stop-color="#F5CEA7" stop-opacity="0"/>
<stop offset="1" stop-color="#F5CEA7"/>
</radialGradient>
<radialGradient id="paint22_radial_7_562" cx="0" cy="0" r="1" gradientUnits="userSpaceOnUse" gradientTransform="translate(37.0861 73.8145) scale(4.78238 4.63843)">
<stop stop-color="#6D4C41"/>
<stop offset="0.999" stop-color="#3D3832"/>
</radialGradient>
<radialGradient id="paint23_radial_7_562" cx="0" cy="0" r="1" gradientUnits="userSpaceOnUse" gradientTransform="translate(36.0669 76.3448) scale(5.09456 4.93205)">
<stop offset="0.567" stop-color="#F5CEA7" stop-opacity="0"/>
<stop offset="1" stop-color="#F5CEA7"/>
</radialGradient>
<radialGradient id="paint24_radial_7_562" cx="0" cy="0" r="1" gradientUnits="userSpaceOnUse" gradientTransform="translate(44.5137 94.784) scale(4.78238 4.63842)">
<stop stop-color="#6D4C41"/>
<stop offset="0.999" stop-color="#3D3832"/>
</radialGradient>
<radialGradient id="paint25_radial_7_562" cx="0" cy="0" r="1" gradientUnits="userSpaceOnUse" gradientTransform="translate(43.4945 97.58) scale(5.04984 4.89936)">
<stop offset="0.567" stop-color="#F5CEA7" stop-opacity="0"/>
<stop offset="1" stop-color="#F5CEA7"/>
</radialGradient>
</defs>
</svg>
