<svg width="66" height="66" viewBox="0 0 66 66" fill="none" xmlns="http://www.w3.org/2000/svg">
<rect width="66" height="66" rx="33" fill="#3E4D95"/>
<path d="M43.625 20.7812H22.375C21.6705 20.7812 20.9949 21.0611 20.4967 21.5592C19.9986 22.0574 19.7188 22.733 19.7188 23.4375V30.875C19.7188 38.0854 23.2144 42.4589 26.1469 44.8588C29.2959 47.4341 32.4475 48.312 32.5803 48.3505C32.8552 48.4248 33.1448 48.4248 33.4197 48.3505C33.5525 48.3133 36.7041 47.4341 39.8531 44.8588C42.7856 42.4589 46.2812 38.0854 46.2812 30.875V23.4375C46.2812 22.733 46.0014 22.0574 45.5033 21.5592C45.0051 21.0611 44.3295 20.7812 43.625 20.7812ZM43.0938 30.875C43.0938 35.6177 41.3552 39.4666 37.926 42.3168C36.4561 43.5297 34.7903 44.4832 33 45.1364C31.2096 44.4836 29.5437 43.53 28.074 42.3168C24.6448 39.4666 22.9062 35.6177 22.9062 30.875V23.9688H43.0938V30.875ZM26.5599 35.1901C26.4117 35.0418 26.2941 34.8658 26.2138 34.6721C26.1336 34.4784 26.0923 34.2708 26.0923 34.0612C26.0923 33.8515 26.1336 33.6439 26.2138 33.4502C26.2941 33.2565 26.4117 33.0805 26.5599 32.9323C26.7082 32.784 26.8842 32.6664 27.0779 32.5862C27.2716 32.506 27.4792 32.4647 27.6888 32.4647C27.8985 32.4647 28.1061 32.506 28.2998 32.5862C28.4935 32.6664 28.6695 32.784 28.8177 32.9323L30.875 34.9922L37.1849 28.6809C37.4843 28.3815 37.8904 28.2133 38.3138 28.2133C38.7372 28.2133 39.1433 28.3815 39.4427 28.6809C39.7421 28.9803 39.9103 29.3864 39.9103 29.8098C39.9103 30.2333 39.7421 30.6393 39.4427 30.9388L32.0052 38.3762C31.8572 38.5248 31.6812 38.6427 31.4875 38.7232C31.2938 38.8036 31.0861 38.845 30.8763 38.845C30.6666 38.845 30.4589 38.8036 30.2651 38.7232C30.0714 38.6427 29.8955 38.5248 29.7474 38.3762L26.5599 35.1901Z" fill="white"/>
</svg>
