<svg width="16" height="16" viewBox="0 0 16 16" fill="none" xmlns="http://www.w3.org/2000/svg">
<path d="M14.2932 13.232L11.3251 10.2626C12.215 9.1029 12.6305 7.6481 12.4873 6.19332C12.3441 4.73854 11.6528 3.39272 10.5538 2.42885C9.45473 1.46499 8.03021 0.955268 6.56917 1.00308C5.10814 1.0509 3.72 1.65268 2.68634 2.68634C1.65268 3.72 1.0509 5.10814 1.00308 6.56917C0.955268 8.03021 1.46499 9.45473 2.42885 10.5538C3.39272 11.6528 4.73854 12.3441 6.19332 12.4873C7.6481 12.6305 9.1029 12.215 10.2626 11.3251L13.2332 14.2964C13.303 14.3661 13.3858 14.4215 13.477 14.4592C13.5681 14.497 13.6658 14.5164 13.7645 14.5164C13.8631 14.5164 13.9608 14.497 14.052 14.4592C14.1431 14.4215 14.226 14.3661 14.2957 14.2964C14.3655 14.2266 14.4208 14.1438 14.4586 14.0526C14.4964 13.9615 14.5158 13.8638 14.5158 13.7651C14.5158 13.6664 14.4964 13.5688 14.4586 13.4776C14.4208 13.3864 14.3655 13.3036 14.2957 13.2339L14.2932 13.232ZM2.51261 6.76261C2.51261 5.92204 2.76187 5.10035 3.22886 4.40144C3.69586 3.70253 4.35962 3.15779 5.13621 2.83612C5.91279 2.51445 6.76732 2.43029 7.59174 2.59427C8.41616 2.75826 9.17344 3.16303 9.76781 3.75741C10.3622 4.35178 10.767 5.10906 10.9309 5.93348C11.0949 6.7579 11.0108 7.61243 10.6891 8.38901C10.3674 9.1656 9.82269 9.82936 9.12378 10.2964C8.42487 10.7634 7.60318 11.0126 6.76261 11.0126C5.6358 11.0115 4.55546 10.5633 3.75869 9.76653C2.96191 8.96976 2.51377 7.88942 2.51261 6.76261Z" fill="#3A3A3A"/>
</svg>
