<svg width="56" height="56" viewBox="0 0 56 56" fill="none" xmlns="http://www.w3.org/2000/svg">
<circle cx="27.9948" cy="27.5375" r="27.4843" fill="#F5F5F5"/>
<rect width="32.9811" height="32.9811" transform="translate(11.5042 11.0474)" fill="#F5F5F5"/>
<path fill-rule="evenodd" clip-rule="evenodd" d="M36.9037 38.2431V38.2404L36.9284 38.1813L41.0497 17.4032V17.3372C41.0497 16.8191 40.8573 16.367 40.4423 16.0963C40.0781 15.8586 39.659 15.8421 39.3649 15.8641C39.0912 15.8888 38.8211 15.9441 38.5596 16.029C38.4481 16.0649 38.3381 16.1052 38.2298 16.1499L38.2119 16.1568L15.2351 25.1702L15.2282 25.173C15.1584 25.1968 15.09 25.2248 15.0235 25.2568C14.8601 25.3302 14.7033 25.4176 14.5549 25.5179C14.2594 25.7213 13.6973 26.1995 13.7922 26.9581C13.8705 27.5875 14.3034 27.986 14.5961 28.1935C14.7689 28.3146 14.9546 28.416 15.1499 28.4958L15.1939 28.5151L15.2076 28.5192L15.2172 28.5233L19.2382 29.8769C19.2244 30.1284 19.2492 30.3854 19.3165 30.6396L21.3297 38.2789C21.4397 38.6953 21.6774 39.0668 22.0093 39.3412C22.3413 39.6156 22.7508 39.7792 23.1805 39.8089C23.6102 39.8386 24.0383 39.733 24.4049 39.5069C24.7715 39.2808 25.058 38.9455 25.2243 38.5482L28.3685 35.1869L33.7677 39.326L33.8447 39.359C34.3353 39.5734 34.7929 39.6407 35.212 39.5844C35.6312 39.5266 35.9637 39.3507 36.2138 39.1515C36.5031 38.9169 36.7337 38.6181 36.8872 38.2789L36.8982 38.2555L36.9023 38.2472L36.9037 38.2431ZM21.3091 30.1146C21.2868 30.0299 21.2921 29.9402 21.3242 29.8587C21.3564 29.7771 21.4136 29.7079 21.4878 29.6612L35.1213 21.0036C35.1213 21.0036 35.9239 20.5158 35.895 21.0036C35.895 21.0036 36.0379 21.0888 35.6078 21.4887C35.201 21.8694 25.8907 30.8581 24.948 31.7678C24.8956 31.8187 24.8589 31.8836 24.8422 31.9547L23.3223 37.7539L21.3091 30.1146Z" fill="url(#paint0_linear_7_389)"/>
<defs>
<linearGradient id="paint0_linear_7_389" x1="8.93032" y1="31.2872" x2="21.6479" y2="9.89806" gradientUnits="userSpaceOnUse">
<stop stop-color="#F300CC"/>
<stop offset="1" stop-color="#813E95"/>
</linearGradient>
</defs>
</svg>
