<svg width="24" height="25" viewBox="0 0 24 25" fill="none" xmlns="http://www.w3.org/2000/svg">
<rect x="24" y="24.2148" width="24" height="23.4297" rx="11.7148" transform="rotate(-180 24 24.2148)" fill="#EBEBEB"/>
<path d="M15.4431 12.993C15.5395 13.0895 15.5937 13.2202 15.5937 13.3566C15.5937 13.493 15.5395 13.6238 15.4431 13.7202C15.3466 13.8166 15.2159 13.8708 15.0795 13.8708C14.9431 13.8708 14.8123 13.8166 14.7159 13.7202L12.5135 11.5169V16.4359C12.5135 16.5721 12.4594 16.7026 12.3631 16.7989C12.2669 16.8951 12.1363 16.9492 12.0002 16.9492C11.864 16.9492 11.7335 16.8951 11.6372 16.7989C11.541 16.7026 11.4869 16.5721 11.4869 16.4359V11.5169L9.28359 13.7206C9.18716 13.8171 9.05637 13.8712 8.92001 13.8712C8.78364 13.8712 8.65285 13.8171 8.55643 13.7206C8.46 13.6242 8.40582 13.4934 8.40582 13.357C8.40582 13.2207 8.46 13.0899 8.55643 12.9935L11.6362 9.91373C11.6839 9.86587 11.7405 9.8279 11.8029 9.802C11.8653 9.77609 11.9322 9.76276 11.9997 9.76276C12.0673 9.76276 12.1342 9.77609 12.1966 9.802C12.259 9.8279 12.3156 9.86587 12.3633 9.91373L15.4431 12.993ZM8.23605 9.07877H15.7643C15.9004 9.07877 16.031 9.02469 16.1272 8.92843C16.2235 8.83217 16.2776 8.70162 16.2776 8.56548C16.2776 8.42935 16.2235 8.29879 16.1272 8.20253C16.031 8.10627 15.9004 8.05219 15.7643 8.05219L8.23605 8.05219C8.09991 8.05219 7.96936 8.10627 7.8731 8.20253C7.77684 8.29879 7.72276 8.42935 7.72276 8.56548C7.72276 8.70162 7.77684 8.83217 7.8731 8.92843C7.96936 9.02469 8.09991 9.07877 8.23605 9.07877Z" fill="#3A3A3A"/>
</svg>
