<svg width="35" height="33" viewBox="0 0 35 33" fill="none" xmlns="http://www.w3.org/2000/svg">
<ellipse cx="17.7999" cy="16.5265" rx="17.0667" ry="16" fill="url(#paint0_linear_5_19)"/>
<path d="M23.3658 21.624L19.5533 15.6365L23.2858 11.5309C23.4168 11.3832 23.4843 11.1899 23.4737 10.9929C23.463 10.7958 23.3752 10.6108 23.2291 10.4781C23.0831 10.3454 22.8906 10.2756 22.6934 10.2838C22.4962 10.292 22.3103 10.3777 22.1758 10.5221L18.7214 14.3246L16.3658 10.624C16.2981 10.5175 16.2046 10.4299 16.0941 10.3692C15.9835 10.3084 15.8594 10.2765 15.7333 10.2765H12.7333C12.5989 10.2766 12.4671 10.3127 12.3515 10.3812C12.2359 10.4496 12.1408 10.5479 12.0761 10.6657C12.0115 10.7834 11.9797 10.9164 11.984 11.0507C11.9884 11.185 12.0287 11.3156 12.1008 11.429L15.9133 17.4165L12.1783 21.5221C12.1107 21.5948 12.0581 21.6801 12.0237 21.7732C11.9893 21.8663 11.9737 21.9653 11.9779 22.0645C11.982 22.1636 12.0058 22.261 12.0479 22.3509C12.0899 22.4408 12.1494 22.5214 12.2228 22.5882C12.2963 22.6549 12.3822 22.7064 12.4757 22.7397C12.5692 22.773 12.6684 22.7874 12.7675 22.7821C12.8666 22.7767 12.9637 22.7518 13.0531 22.7087C13.1425 22.6655 13.2224 22.6051 13.2883 22.5309L16.7452 18.7284L19.1008 22.429C19.1685 22.5354 19.2619 22.6231 19.3725 22.6838C19.483 22.7446 19.6071 22.7764 19.7333 22.7765H22.7333C22.8676 22.7764 22.9995 22.7403 23.1151 22.6718C23.2307 22.6034 23.3258 22.5051 23.3904 22.3873C23.4551 22.2695 23.4869 22.1366 23.4825 22.0023C23.4782 21.868 23.4379 21.7374 23.3658 21.624ZM20.1452 21.2765L14.0995 11.7765H15.3214L21.367 21.2765H20.1452Z" fill="white"/>
<defs>
<linearGradient id="paint0_linear_5_19" x1="-5.33929" y1="21.1373" x2="12.154" y2="-6.43441" gradientUnits="userSpaceOnUse">
<stop stop-color="#F300CC"/>
<stop offset="1" stop-color="#813E95"/>
</linearGradient>
</defs>
</svg>
