<svg width="66" height="66" viewBox="0 0 66 66" fill="none" xmlns="http://www.w3.org/2000/svg">
<rect width="66" height="66" rx="33" fill="#3E8F95"/>
<path d="M46.3809 29.2879C45.9134 28.8005 45.4312 28.2971 45.2732 27.9159C45.1324 27.5759 45.1218 26.876 45.1125 26.2598C45.0926 24.9316 45.0673 23.2795 43.8933 22.1067C42.7192 20.934 41.0684 20.9114 39.7402 20.8875C39.124 20.8782 38.4241 20.8676 38.0841 20.7268C37.7029 20.5687 37.1995 20.0866 36.7121 19.6191C35.7718 18.7173 34.6004 17.5938 33 17.5938C31.3996 17.5938 30.2282 18.7173 29.2879 19.6191C28.8005 20.0866 28.2971 20.5687 27.9159 20.7268C27.5759 20.8676 26.876 20.8782 26.2598 20.8875C24.9316 20.9141 23.2795 20.9327 22.1094 22.1094C20.9393 23.2861 20.9141 24.9316 20.8875 26.2598C20.8782 26.876 20.8676 27.5759 20.7268 27.9159C20.5687 28.2971 20.0866 28.8005 19.6191 29.2879C18.7173 30.2282 17.5938 31.4062 17.5938 33C17.5938 34.5938 18.7173 35.7718 19.6191 36.7188C20.0866 37.2062 20.5687 37.7095 20.7268 38.0907C20.8676 38.4307 20.8782 39.1306 20.8875 39.7469C20.9074 41.075 20.9327 42.7272 22.1067 43.8999C23.2808 45.0727 24.9316 45.0952 26.2598 45.1191C26.876 45.1284 27.5759 45.1391 27.9159 45.2798C28.2971 45.4379 28.8005 45.92 29.2879 46.3875C30.2282 47.2827 31.4062 48.4062 33 48.4062C34.5938 48.4062 35.7718 47.2827 36.7121 46.3809C37.1995 45.9134 37.7029 45.4312 38.0841 45.2732C38.4241 45.1324 39.124 45.1218 39.7402 45.1125C41.0684 45.0926 42.7205 45.0673 43.8933 43.8933C45.066 42.7192 45.0886 41.0684 45.1125 39.7402C45.1218 39.124 45.1324 38.4241 45.2732 38.0841C45.4312 37.7029 45.9134 37.1995 46.3809 36.7121C47.2827 35.7718 48.4062 34.6004 48.4062 33C48.4062 31.3996 47.2827 30.2282 46.3809 29.2879ZM44.0805 34.5061C43.4404 35.1702 42.7152 35.9298 42.3288 36.8648C41.9542 37.768 41.9396 38.7455 41.9303 39.6924C41.9197 40.4043 41.9051 41.3805 41.6448 41.6395C41.3845 41.8984 40.4096 41.9144 39.6977 41.925C38.7508 41.9396 37.7733 41.9542 36.8702 42.3234C35.9405 42.7099 35.1795 43.4351 34.5114 44.0752C34.0333 44.5334 33.3188 45.2188 33 45.2188C32.6812 45.2188 31.9667 44.5334 31.4939 44.0805C30.8298 43.4404 30.0702 42.7152 29.1352 42.3288C28.232 41.9542 27.2545 41.9396 26.3076 41.9303C25.5957 41.9197 24.6195 41.9051 24.3605 41.6448C24.1016 41.3845 24.0856 40.4096 24.075 39.6977C24.0604 38.7508 24.0458 37.7733 23.6766 36.8702C23.2901 35.9405 22.5649 35.1795 21.9248 34.5114C21.4666 34.0333 20.7812 33.3188 20.7812 33C20.7812 32.6812 21.4666 31.9667 21.9195 31.4939C22.5596 30.8298 23.2848 30.0702 23.6712 29.1352C24.0458 28.232 24.0604 27.2545 24.0697 26.3076C24.0856 25.5957 24.1016 24.6195 24.3672 24.3672C24.6328 24.1148 25.6023 24.0923 26.3142 24.0816C27.2612 24.067 28.2387 24.0524 29.1418 23.6832C30.0715 23.2967 30.8325 22.5716 31.5005 21.9314C31.9667 21.4666 32.6812 20.7812 33 20.7812C33.3188 20.7812 34.0333 21.4666 34.5061 21.9195C35.1702 22.5596 35.9298 23.2848 36.8648 23.6712C37.768 24.0458 38.7455 24.0604 39.6924 24.0697C40.4043 24.0803 41.3805 24.0949 41.6395 24.3552C41.8984 24.6155 41.9144 25.5904 41.925 26.3023C41.9396 27.2492 41.9542 28.2267 42.3234 29.1298C42.7099 30.0595 43.4351 30.8205 44.0752 31.4886C44.5281 31.9614 45.2134 32.6759 45.2134 32.9947C45.2134 33.3134 44.5334 34.0333 44.0805 34.5061ZM39.4401 28.6849C39.5887 28.833 39.7065 29.0089 39.787 29.2026C39.8674 29.3964 39.9088 29.6041 39.9088 29.8138C39.9088 30.0236 39.8674 30.2313 39.787 30.425C39.7065 30.6187 39.5887 30.7947 39.4401 30.9427L32.0026 38.3802C31.8545 38.5288 31.6786 38.6467 31.4849 38.7271C31.2911 38.8076 31.0834 38.849 30.8737 38.849C30.6639 38.849 30.4562 38.8076 30.2625 38.7271C30.0688 38.6467 29.8928 38.5288 29.7448 38.3802L26.5573 35.1927C26.409 35.0445 26.2914 34.8685 26.2112 34.6748C26.131 34.4811 26.0897 34.2735 26.0897 34.0638C26.0897 33.8542 26.131 33.6466 26.2112 33.4529C26.2914 33.2592 26.409 33.0832 26.5573 32.9349C26.7055 32.7867 26.8815 32.6691 27.0752 32.5888C27.2689 32.5086 27.4765 32.4673 27.6862 32.4673C27.8958 32.4673 28.1034 32.5086 28.2971 32.5888C28.4908 32.6691 28.6668 32.7867 28.8151 32.9349L30.875 34.9922L37.1849 28.6809C37.3332 28.533 37.5092 28.4158 37.7028 28.3359C37.8964 28.256 38.1039 28.2151 38.3133 28.2155C38.5228 28.2159 38.7301 28.2575 38.9234 28.3381C39.1168 28.4186 39.2923 28.5365 39.4401 28.6849Z" fill="white"/>
</svg>
