<svg width="108" height="97" viewBox="0 0 108 97" fill="none" xmlns="http://www.w3.org/2000/svg">
<ellipse cx="54" cy="48.4048" rx="53.5" ry="48.4048" fill="#FEE6FA"/>
<path d="M38.9131 63.0645C37.8938 63.0645 37.0216 62.7018 36.2963 61.9766C35.5711 61.2513 35.2078 60.3784 35.2066 59.3579V37.1187C35.2066 36.0994 35.5698 35.2271 36.2963 34.5018C37.0228 33.7766 37.8951 33.4133 38.9131 33.4121H68.5655C69.5848 33.4121 70.4577 33.7754 71.1842 34.5018C71.9106 35.2283 72.2733 36.1006 72.272 37.1187V59.3579C72.272 60.3772 71.9094 61.2501 71.1842 61.9766C70.4589 62.7031 69.586 63.0657 68.5655 63.0645H38.9131ZM53.7393 50.0916L38.9131 40.8252V59.3579H68.5655V40.8252L53.7393 50.0916ZM53.7393 46.385L68.5655 37.1187H38.9131L53.7393 46.385ZM38.9131 40.8252V37.1187V59.3579V40.8252Z" fill="url(#paint0_linear_190_250)"/>
<g clip-path="url(#clip0_190_250)">
<path d="M84.2879 62.3492C84.1044 62.1579 83.9152 61.9604 83.8532 61.8108C83.7979 61.6774 83.7938 61.4027 83.7901 61.1608C83.7823 60.6396 83.7724 59.9912 83.3116 59.5309C82.8509 59.0707 82.203 59.0618 81.6817 59.0524C81.4399 59.0488 81.1652 59.0446 81.0318 58.9894C80.8822 58.9273 80.6846 58.7381 80.4933 58.5546C80.1243 58.2007 79.6646 57.7598 79.0365 57.7598C78.4084 57.7598 77.9487 58.2007 77.5796 58.5546C77.3883 58.7381 77.1908 58.9273 77.0412 58.9894C76.9078 59.0446 76.6331 59.0488 76.3912 59.0524C75.87 59.0628 75.2216 59.0701 74.7624 59.532C74.3032 59.9938 74.2933 60.6396 74.2828 61.1608C74.2792 61.4027 74.275 61.6774 74.2198 61.8108C74.1577 61.9604 73.9685 62.1579 73.7851 62.3492C73.4311 62.7183 72.9902 63.1806 72.9902 63.8061C72.9902 64.4315 73.4311 64.8939 73.7851 65.2655C73.9685 65.4568 74.1577 65.6544 74.2198 65.8039C74.275 65.9374 74.2792 66.2121 74.2828 66.4539C74.2907 66.9752 74.3006 67.6236 74.7613 68.0838C75.2221 68.5441 75.87 68.5529 76.3912 68.5623C76.6331 68.566 76.9078 68.5701 77.0412 68.6254C77.1908 68.6874 77.3883 68.8766 77.5796 69.0601C77.9487 69.4114 78.411 69.8524 79.0365 69.8524C79.662 69.8524 80.1243 69.4114 80.4933 69.0575C80.6846 68.874 80.8822 68.6848 81.0318 68.6228C81.1652 68.5675 81.4399 68.5634 81.6817 68.5597C82.203 68.5519 82.8514 68.542 83.3116 68.0812C83.7719 67.6204 83.7807 66.9726 83.7901 66.4513C83.7938 66.2095 83.7979 65.9348 83.8532 65.8013C83.9152 65.6517 84.1044 65.4542 84.2879 65.2629C84.6418 64.8939 85.0828 64.4341 85.0828 63.8061C85.0828 63.178 84.6418 62.7183 84.2879 62.3492ZM83.3851 64.3971C83.1339 64.6578 82.8493 64.9559 82.6976 65.3229C82.5506 65.6773 82.5449 66.0609 82.5413 66.4326C82.5371 66.7119 82.5313 67.095 82.4292 67.1967C82.327 67.2983 81.9444 67.3046 81.6651 67.3087C81.2934 67.3145 80.9098 67.3202 80.5554 67.4651C80.1905 67.6168 79.8918 67.9014 79.6296 68.1526C79.442 68.3324 79.1616 68.6014 79.0365 68.6014C78.9114 68.6014 78.631 68.3324 78.4454 68.1547C78.1848 67.9035 77.8866 67.6189 77.5197 67.4672C77.1653 67.3202 76.7816 67.3145 76.41 67.3108C76.1306 67.3067 75.7475 67.3009 75.6459 67.1988C75.5442 67.0966 75.538 66.714 75.5338 66.4346C75.5281 66.063 75.5223 65.6794 75.3774 65.3249C75.2258 64.9601 74.9412 64.6614 74.6899 64.3992C74.5101 64.2116 74.2411 63.9312 74.2411 63.8061C74.2411 63.681 74.5101 63.4005 74.6878 63.215C74.9391 62.9544 75.2237 62.6562 75.3753 62.2893C75.5223 61.9348 75.5281 61.5512 75.5317 61.1796C75.538 60.9002 75.5442 60.5171 75.6485 60.4181C75.7527 60.319 76.1332 60.3102 76.4126 60.306C76.7842 60.3003 77.1679 60.2945 77.5223 60.1496C77.8872 59.9979 78.1858 59.7133 78.448 59.4621C78.631 59.2797 78.9114 59.0107 79.0365 59.0107C79.1616 59.0107 79.442 59.2797 79.6276 59.4574C79.8882 59.7087 80.1863 59.9932 80.5533 60.1449C80.9077 60.2919 81.2913 60.2976 81.663 60.3013C81.9424 60.3055 82.3255 60.3112 82.4271 60.4134C82.5287 60.5155 82.535 60.8981 82.5392 61.1775C82.5449 61.5491 82.5506 61.9328 82.6955 62.2872C82.8472 62.6521 83.1318 62.9507 83.383 63.2129C83.5608 63.3985 83.8297 63.6789 83.8297 63.804C83.8297 63.9291 83.5629 64.2116 83.3851 64.3971ZM81.5639 62.1126C81.6223 62.1707 81.6685 62.2397 81.7001 62.3158C81.7317 62.3918 81.7479 62.4733 81.7479 62.5556C81.7479 62.6379 81.7317 62.7195 81.7001 62.7955C81.6685 62.8715 81.6223 62.9406 81.5639 62.9987L78.645 65.9176C78.5869 65.9759 78.5179 66.0222 78.4419 66.0537C78.3658 66.0853 78.2843 66.1015 78.202 66.1015C78.1197 66.1015 78.0382 66.0853 77.9621 66.0537C77.8861 66.0222 77.8171 65.9759 77.7589 65.9176L76.508 64.6666C76.4498 64.6084 76.4036 64.5394 76.3722 64.4633C76.3407 64.3873 76.3245 64.3059 76.3245 64.2236C76.3245 64.1413 76.3407 64.0598 76.3722 63.9838C76.4036 63.9078 76.4498 63.8387 76.508 63.7805C76.5662 63.7223 76.6352 63.6762 76.7113 63.6447C76.7873 63.6132 76.8687 63.597 76.951 63.597C77.0333 63.597 77.1148 63.6132 77.1908 63.6447C77.2668 63.6762 77.3359 63.7223 77.3941 63.7805L78.2025 64.5879L80.6789 62.111C80.7371 62.053 80.8061 62.007 80.8821 61.9756C80.9581 61.9443 81.0395 61.9282 81.1217 61.9284C81.2039 61.9285 81.2853 61.9448 81.3612 61.9765C81.4371 62.0081 81.506 62.0543 81.5639 62.1126Z" fill="#008000"/>
</g>
<defs>
<linearGradient id="paint0_linear_190_250" x1="28.6124" y1="52.5108" x2="43.6153" y2="24.8" gradientUnits="userSpaceOnUse">
<stop stop-color="#F300CC"/>
<stop offset="1" stop-color="#813E95"/>
</linearGradient>
<clipPath id="clip0_190_250">
<rect width="13.3436" height="13.3436" fill="white" transform="translate(72.3645 57.1348)"/>
</clipPath>
</defs>
</svg>
